<svg width="74" height="56" viewBox="0 0 74 56" fill="none" xmlns="http://www.w3.org/2000/svg">
<path d="M17.8164 43.3777H53.447" stroke="#C9C9C9" stroke-width="2" stroke-linecap="round" stroke-linejoin="round"/>
<path d="M34.7305 28.5188L50.1491 19.2362" stroke="#C9C9C9" stroke-width="2" stroke-linecap="round" stroke-linejoin="round"/>
<path d="M10.2578 25.9482L16.2329 31.9234" stroke="#C9C9C9" stroke-width="2" stroke-linecap="round" stroke-linejoin="round"/>
<path d="M1.62109 23.7891L7.59622 29.7642" stroke="#C9C9C9" stroke-width="2" stroke-linecap="round" stroke-linejoin="round"/>
<path d="M16.2898 23.5191L25.6843 32.5308C26.937 33.7338 28.5352 34.4905 30.2413 34.6882C31.9474 34.886 33.6702 34.5144 35.1536 33.6286L72.8811 11.1631L68.2461 5.34255C67.0404 3.83397 65.3478 2.81692 63.4741 2.47514C61.6004 2.13336 59.6692 2.48941 58.0293 3.47895L46.9652 10.142L32.0138 5.03621L27.9021 6.84876C27.5945 6.98381 27.325 7.19603 27.1186 7.46585C26.9121 7.73566 26.7752 8.05439 26.7206 8.39265C26.666 8.73092 26.6954 9.07782 26.806 9.40138C26.9167 9.72495 27.1051 10.0148 27.3539 10.2441L35.0041 17.2901L28.0267 21.3747L21.0494 18.3112L16.863 20.1493C16.5584 20.2833 16.2912 20.4931 16.0857 20.7595C15.8802 21.0259 15.7427 21.3407 15.6858 21.6752C15.6289 22.0098 15.6544 22.3536 15.7598 22.6756C15.8653 22.9975 16.0475 23.2874 16.2898 23.5191V23.5191Z" stroke="#C9C9C9" stroke-width="2" stroke-linecap="round" stroke-linejoin="round"/>
<path d="M69.102 6.66756C63.1121 11.3721 57.1994 11.9633 52.9062 6.66756L56.2795 4.47491C60.4715 1.75015 66.0536 2.7047 69.102 6.66756Z" fill="#009260" stroke="#C9C9C9" stroke-width="2"/>
</svg>
