<svg width="57" height="46" viewBox="0 0 57 46" fill="none" xmlns="http://www.w3.org/2000/svg">
<path d="M2.33203 45H54.713" stroke="#141414" stroke-width="2" stroke-linecap="round" stroke-linejoin="round"/>
<path d="M32.7147 45V2.91304C32.7147 2.40567 32.5097 1.91908 32.1448 1.56032C31.7799 1.20155 31.2851 1 30.7691 1H7.42214C6.90614 1 6.41128 1.20155 6.04641 1.56032C5.68154 1.91908 5.47656 2.40567 5.47656 2.91304V45" stroke="#141414" stroke-width="2" stroke-linecap="round" stroke-linejoin="round"/>
<path d="M32.7148 13.5715H48.572C50.2288 13.5715 51.572 14.9147 51.572 16.5715V43.9525H32.7148V13.5715Z" fill="#009260" stroke="#141414" stroke-width="2" stroke-linecap="round" stroke-linejoin="round"/>
<path d="M13.8555 10.4285H21.1888" stroke="#141414" stroke-width="2" stroke-linecap="round" stroke-linejoin="round"/>
<path d="M1.28516 40.8096L1.28516 26.1429" stroke="#141414" stroke-width="2" stroke-linecap="round" stroke-linejoin="round"/>
<path d="M55.7617 30.3333L55.7617 15.6666" stroke="#141414" stroke-width="2" stroke-linecap="round" stroke-linejoin="round"/>
<path d="M35.8555 9.38086L43.1888 9.38086" stroke="#141414" stroke-width="2" stroke-linecap="round" stroke-linejoin="round"/>
<path d="M17 26.1428H24.3333" stroke="#141414" stroke-width="2" stroke-linecap="round" stroke-linejoin="round"/>
<path d="M13.8555 35.5715H21.1888" stroke="#141414" stroke-width="2" stroke-linecap="round" stroke-linejoin="round"/>
<path d="M40.0469 35.5715H44.2374" stroke="#141414" stroke-width="2" stroke-linecap="round" stroke-linejoin="round"/>
<path d="M40.0469 26.1428H44.2374" stroke="#141414" stroke-width="2" stroke-linecap="round" stroke-linejoin="round"/>
</svg>
