<svg width="57" height="58" viewBox="0 0 57 58" fill="none" xmlns="http://www.w3.org/2000/svg">
<path d="M25.2089 28.8953C32.7327 28.8953 38.8319 22.7961 38.8319 15.2724C38.8319 7.74862 32.7327 1.64941 25.2089 1.64941C17.6851 1.64941 11.5859 7.74862 11.5859 15.2724C11.5859 22.7961 17.6851 28.8953 25.2089 28.8953Z" fill="#009260" stroke="#C9C9C9" stroke-width="2" stroke-linecap="round" stroke-linejoin="round"/>
<path d="M5.72656 37.9774C8.11343 35.1326 11.0944 32.8451 14.4599 31.2756C17.8255 29.7061 21.4939 28.8928 25.2074 28.8928C28.9209 28.8928 32.5893 29.7061 35.9549 31.2756C39.3204 32.8451 42.3014 35.1326 44.6882 37.9774" stroke="#C9C9C9" stroke-width="2" stroke-linecap="round" stroke-linejoin="round"/>
<path d="M52.2734 39.1123L42.0562 39.1123L42.0562 20.9484L52.2734 20.9484L52.2734 39.1123Z" fill="white" stroke="#E0E0E0" stroke-linecap="round" stroke-linejoin="round"/>
<path d="M52.2734 27.76L42.0562 27.76L42.0562 20.9485L52.2734 20.9485L52.2734 27.76Z" fill="#009260" stroke="black" stroke-linecap="round" stroke-linejoin="round"/>
<path d="M48.8672 25.4895L45.4614 25.4895" stroke="#E0E0E0" stroke-linecap="round" stroke-linejoin="round"/>
<path d="M48.8672 31.1653L45.4614 31.1653" stroke="#E0E0E0" stroke-linecap="round" stroke-linejoin="round"/>
<path d="M55.6758 28.8953L55.6758 38.5526" stroke="#C9C9C9" stroke-linecap="round" stroke-linejoin="round"/>
<path d="M7.09876 22.6294C6.22303 21.4753 4.06436 17.6349 5.73438 10.4199" stroke="#C9C9C9" stroke-width="1.5" stroke-linecap="round" stroke-linejoin="round"/>
<path d="M35.6225 16.685C35.5742 17.8454 34.9329 21.3291 30.0859 25.0125" stroke="#C9C9C9" stroke-linecap="round" stroke-linejoin="round"/>
</svg>
