<svg width="62" height="62" viewBox="0 0 62 62" fill="none" xmlns="http://www.w3.org/2000/svg">
<path d="M42.0703 28.7858V18.8215H47.6671C50.5017 18.8215 53.0564 20.5309 54.1377 23.1511L56.1781 28.0951C56.3139 28.4242 56.072 28.7858 55.7159 28.7858H42.0703Z" fill="#009260" stroke="#000E18" stroke-width="2"/>
<path d="M4.42969 35.4285H42.0725" stroke="#000E18" stroke-width="2" stroke-linecap="round" stroke-linejoin="round"/>
<path d="M45.3929 53.1431C49.0616 53.1431 52.0357 50.169 52.0357 46.5003C52.0357 42.8315 49.0616 39.8574 45.3929 39.8574C41.7241 39.8574 38.75 42.8315 38.75 46.5003C38.75 50.169 41.7241 53.1431 45.3929 53.1431Z" stroke="#000E18" stroke-width="2" stroke-linecap="round" stroke-linejoin="round"/>
<path d="M16.6077 53.1431C20.2764 53.1431 23.2506 50.169 23.2506 46.5003C23.2506 42.8315 20.2764 39.8574 16.6077 39.8574C12.939 39.8574 9.96484 42.8315 9.96484 46.5003C9.96484 50.169 12.939 53.1431 16.6077 53.1431Z" fill="#009260" stroke="#000E18" stroke-width="2" stroke-linecap="round" stroke-linejoin="round"/>
<path d="M38.75 45.3926H23.25" stroke="#000E18" stroke-width="2" stroke-linecap="round" stroke-linejoin="round"/>
<path d="M9.91004 45.3926H6.31183C5.81265 45.3926 5.33392 45.1884 4.98095 44.8251C4.62798 44.4617 4.42969 43.9689 4.42969 43.4551V16.3301C4.42969 15.8162 4.62798 15.3234 4.98095 14.9601C5.33392 14.5967 5.81265 14.3926 6.31183 14.3926H42.0725V40.3551" stroke="#000E18" stroke-width="2" stroke-linecap="round" stroke-linejoin="round"/>
<path d="M42.0703 28.7861H57.5703V43.548C57.5703 44.0374 57.3662 44.5068 57.0028 44.8528C56.6395 45.1989 56.1467 45.3933 55.6328 45.3933H51.8962" stroke="#000E18" stroke-width="2" stroke-linecap="round" stroke-linejoin="round"/>
<path d="M8.85547 28.0947L8.85547 18.8215" stroke="#000E18" stroke-width="2" stroke-linecap="round" stroke-linejoin="round"/>
<path d="M28.7854 31L38.0586 31" stroke="#000E18" stroke-width="2" stroke-linecap="round" stroke-linejoin="round"/>
<path d="M28.784 49.7148L32.1055 49.7148" stroke="#000E18" stroke-width="2" stroke-linecap="round" stroke-linejoin="round"/>
</svg>
