<svg width="76" height="66" viewBox="0 0 76 66" fill="none" xmlns="http://www.w3.org/2000/svg">
<path d="M17.3047 55.4348H53.1743" stroke="#000E18" stroke-width="2" stroke-linecap="round" stroke-linejoin="round"/>
<path d="M34.332 40.4766L49.8541 31.1317" stroke="#000E18" stroke-width="2" stroke-linecap="round" stroke-linejoin="round"/>
<path d="M9.69531 37.8877L15.7105 43.9029" stroke="#000E18" stroke-width="2" stroke-linecap="round" stroke-linejoin="round"/>
<path d="M1 35.7139L7.01521 41.7291" stroke="#000E18" stroke-width="2" stroke-linecap="round" stroke-linejoin="round"/>
<path d="M15.7667 35.4434L25.2243 44.5155C26.4853 45.7266 28.0942 46.4883 29.8118 46.6874C31.5293 46.8865 33.2637 46.5124 34.757 45.6206L72.7376 23.0045L68.0716 17.1449C66.8578 15.6262 65.1538 14.6023 63.2676 14.2582C61.3813 13.9141 59.4371 14.2726 57.7862 15.2688L46.6479 21.9765L31.5962 16.8365L27.4569 18.6612C27.1473 18.7971 26.876 19.0108 26.6681 19.2824C26.4602 19.554 26.3224 19.8749 26.2675 20.2154C26.2125 20.556 26.2421 20.9052 26.3535 21.2309C26.4649 21.5567 26.6546 21.8484 26.905 22.0793L34.6065 29.1725L27.5824 33.2845L20.5582 30.2005L16.3437 32.0509C16.0371 32.1859 15.7682 32.397 15.5613 32.6652C15.3543 32.9335 15.216 33.2503 15.1587 33.5871C15.1014 33.9239 15.127 34.27 15.2332 34.5941C15.3393 34.9183 15.5227 35.2101 15.7667 35.4434V35.4434Z" stroke="#000E18" stroke-width="2" stroke-linecap="round" stroke-linejoin="round"/>
<path d="M68.9333 18.4781C62.9032 23.2141 56.9509 23.8094 52.6289 18.4781L56.0248 16.2707C60.2449 13.5277 65.8645 14.4886 68.9333 18.4781Z" fill="#009260" stroke="#000E18" stroke-width="2"/>
</svg>
