<svg width="56" height="58" viewBox="0 0 56 58" fill="none" xmlns="http://www.w3.org/2000/svg">
<path d="M39.457 16.0422V6.07788H45.0538C47.8884 6.07788 50.4431 7.7873 51.5245 10.4075L53.5648 15.3514C53.7007 15.6806 53.4587 16.0422 53.1026 16.0422H39.457Z" fill="#009260" stroke="#C9C9C9" stroke-width="2"/>
<path d="M1.8125 22.6855H39.4554" stroke="#C9C9C9" stroke-width="2" stroke-linecap="round" stroke-linejoin="round"/>
<path d="M42.7757 40.399C46.4444 40.399 49.4185 37.4249 49.4185 33.7561C49.4185 30.0874 46.4444 27.1133 42.7757 27.1133C39.1069 27.1133 36.1328 30.0874 36.1328 33.7561C36.1328 37.4249 39.1069 40.399 42.7757 40.399Z" stroke="#C9C9C9" stroke-width="2" stroke-linecap="round" stroke-linejoin="round"/>
<path d="M13.9905 40.399C17.6593 40.399 20.6334 37.4249 20.6334 33.7561C20.6334 30.0874 17.6593 27.1133 13.9905 27.1133C10.3218 27.1133 7.34766 30.0874 7.34766 33.7561C7.34766 37.4249 10.3218 40.399 13.9905 40.399Z" fill="#009260" stroke="#C9C9C9" stroke-width="2" stroke-linecap="round" stroke-linejoin="round"/>
<path d="M36.1328 32.6494H20.6328" stroke="#C9C9C9" stroke-width="2" stroke-linecap="round" stroke-linejoin="round"/>
<path d="M7.29286 32.6494H3.69464C3.19547 32.6494 2.71674 32.4453 2.36377 32.0819C2.0108 31.7186 1.8125 31.2258 1.8125 30.7119V3.58691C1.8125 3.07306 2.0108 2.58025 2.36377 2.2169C2.71674 1.85354 3.19547 1.64941 3.69464 1.64941H39.4554V27.6119" stroke="#C9C9C9" stroke-width="2" stroke-linecap="round" stroke-linejoin="round"/>
<path d="M39.457 16.042H54.957V30.8039C54.957 31.2933 54.7529 31.7626 54.3896 32.1087C54.0262 32.4547 53.5334 32.6491 53.0195 32.6491H49.2829" stroke="#C9C9C9" stroke-width="2" stroke-linecap="round" stroke-linejoin="round"/>
<path d="M6.24219 15.3511L6.24219 6.07788" stroke="#C9C9C9" stroke-width="2" stroke-linecap="round" stroke-linejoin="round"/>
<path d="M26.1682 18.2568L35.4414 18.2568" stroke="#C9C9C9" stroke-width="2" stroke-linecap="round" stroke-linejoin="round"/>
<path d="M26.1708 36.9709L29.4922 36.9709" stroke="#C9C9C9" stroke-width="2" stroke-linecap="round" stroke-linejoin="round"/>
</svg>
