<svg width="53" height="59" viewBox="0 0 53 59" fill="none" xmlns="http://www.w3.org/2000/svg">
<path d="M5.21094 41.7498V14.9165" stroke="white" stroke-width="2" stroke-linecap="round" stroke-linejoin="round"/>
<path d="M43.5469 14.9165V41.7498" stroke="white" stroke-width="2" stroke-linecap="round" stroke-linejoin="round"/>
<path d="M16.7109 28.3335V32.1668" stroke="white" stroke-width="2" stroke-linecap="round" stroke-linejoin="round"/>
<path d="M24.3789 26.4167V32.1667" stroke="white" stroke-width="2" stroke-linecap="round" stroke-linejoin="round"/>
<path d="M32.0469 24.5V32.1667" stroke="white" stroke-width="2" stroke-linecap="round" stroke-linejoin="round"/>
<path d="M45.4622 7.25H3.29557C2.23703 7.25 1.37891 8.10812 1.37891 9.16666V13C1.37891 14.0585 2.23703 14.9167 3.29557 14.9167H45.4622C46.5207 14.9167 47.3789 14.0585 47.3789 13V9.16666C47.3789 8.10812 46.5207 7.25 45.4622 7.25Z" stroke="white" stroke-width="2" stroke-linecap="round" stroke-linejoin="round"/>
<path d="M45.4622 7.25H3.29557C2.23703 7.25 1.37891 8.10812 1.37891 9.16666V13C1.37891 14.0585 2.23703 14.9167 3.29557 14.9167H45.4622C46.5207 14.9167 47.3789 14.0585 47.3789 13V9.16666C47.3789 8.10812 46.5207 7.25 45.4622 7.25Z" fill="#009260" stroke="white" stroke-width="2" stroke-linecap="round" stroke-linejoin="round"/>
<path d="M17.7796 57.2948C15.9767 55.985 15.1674 52.8168 17.1929 50.2047" stroke="#C9C9C9" stroke-width="1.5" stroke-linecap="round" stroke-linejoin="round"/>
<path d="M1.37891 1H22.3789" stroke="#C9C9C9" stroke-width="2" stroke-linecap="round" stroke-linejoin="round"/>
<path d="M51.3789 18L51.3789 28" stroke="#C9C9C9" stroke-width="2" stroke-linecap="round" stroke-linejoin="round"/>
<path d="M24.3789 41.75V49.4167" stroke="white" stroke-width="2" stroke-linecap="round" stroke-linejoin="round"/>
<path d="M24.3802 57.0834C26.4973 57.0834 28.2135 55.3672 28.2135 53.2501C28.2135 51.133 26.4973 49.4167 24.3802 49.4167C22.2631 49.4167 20.5469 51.133 20.5469 53.2501C20.5469 55.3672 22.2631 57.0834 24.3802 57.0834Z" fill="#009260" stroke="white" stroke-width="2" stroke-linecap="round" stroke-linejoin="round"/>
<path d="M1.37891 41.75H47.3789" stroke="white" stroke-width="2" stroke-linecap="round" stroke-linejoin="round"/>
</svg>
