<svg width="52" height="58" viewBox="0 0 52 58" fill="none" xmlns="http://www.w3.org/2000/svg">
<path d="M26.043 7.81435V1.64941" stroke="#C9C9C9" stroke-width="2" stroke-linecap="round" stroke-linejoin="round"/>
<path d="M50.7023 36.5841C46.952 49.6846 29.5874 54.257 26.5049 54.9762C26.2015 55.0534 25.8836 55.0534 25.5802 54.9762C22.4977 54.257 5.13315 49.6846 1.38281 36.5841V27.7991C1.38278 27.3664 1.51933 26.9447 1.77302 26.5942C2.0267 26.2436 2.38457 25.9821 2.79561 25.8469L25.4004 18.2948C25.8188 18.1661 26.2663 18.1661 26.6847 18.2948L49.2895 25.8469C49.7006 25.9821 50.0584 26.2436 50.3121 26.5942C50.5658 26.9447 50.7024 27.3664 50.7023 27.7991V36.5841Z" stroke="#C9C9C9" stroke-width="2" stroke-linecap="round" stroke-linejoin="round"/>
<path d="M26.5119 48.3146C24.0731 47.7531 10.3344 44.1835 7.36719 33.9561" stroke="#C9C9C9" stroke-width="2" stroke-linecap="round" stroke-linejoin="round"/>
<path d="M7.36719 10.6318V23.7852L25.9136 17.2042L44.46 23.7852V10.6318C44.46 8.97498 43.1169 7.63184 41.46 7.63184H10.3672C8.71033 7.63184 7.36719 8.97498 7.36719 10.6318Z" fill="#009260" stroke="#C9C9C9" stroke-width="2"/>
<path d="M26.043 38.6392V18.1921" stroke="#C9C9C9" stroke-width="2" stroke-linecap="round" stroke-linejoin="round"/>
<path d="M31.2969 37.5457L31.2969 29.1699" stroke="#C9C9C9" stroke-width="2" stroke-linecap="round" stroke-linejoin="round"/>
<path d="M12.1523 18.4007V12.418" stroke="#C9C9C9" stroke-width="2" stroke-linecap="round" stroke-linejoin="round"/>
<path d="M49.2461 20.794V10.0251" stroke="#C9C9C9" stroke-width="2" stroke-linecap="round" stroke-linejoin="round"/>
</svg>
