<svg width="55" height="55" viewBox="0 0 55 55" fill="none" xmlns="http://www.w3.org/2000/svg">
<path d="M37.4916 11.4354C34.6041 9.625 31.1667 8.59375 27.5 8.59375C17.05 8.59375 8.59375 17.05 8.59375 27.5C8.59375 29.2417 8.82287 30.9146 9.25828 32.5188" stroke="black" stroke-width="2" stroke-miterlimit="10" stroke-linecap="round" stroke-linejoin="round"/>
<path d="M4.58203 36.6671L50.4154 11.4587" stroke="black" stroke-width="2" stroke-miterlimit="10" stroke-linecap="round" stroke-linejoin="round"/>
<path d="M14.4407 39.1747C17.0359 41.4322 20.2714 43.0005 23.9175 43.5656C34.2441 45.1662 43.8959 38.105 45.4965 27.7783C45.7843 25.9213 45.7933 24.0675 45.5548 22.3145" fill="#009260"/>
<path d="M14.4407 39.1747C17.0359 41.4322 20.2714 43.0005 23.9175 43.5656C34.2441 45.1662 43.8959 38.105 45.4965 27.7783C45.7843 25.9213 45.7933 24.0675 45.5548 22.3145" stroke="#009260" stroke-width="2" stroke-miterlimit="10" stroke-linecap="round" stroke-linejoin="round"/>
<path d="M50.4154 19.479L4.58203 44.6873" stroke="#009260" stroke-width="2" stroke-miterlimit="10" stroke-linecap="round" stroke-linejoin="round"/>
</svg>
