<svg width="57" height="58" viewBox="0 0 57 58" fill="none" xmlns="http://www.w3.org/2000/svg">
<path d="M2.42969 45.6494H54.8106" stroke="#E0E0E0" stroke-width="2" stroke-linecap="round" stroke-linejoin="round"/>
<path d="M32.8123 45.6494V3.56246C32.8123 3.05509 32.6073 2.5685 32.2425 2.20973C31.8776 1.85097 31.3827 1.64941 30.8667 1.64941H7.5198C7.0038 1.64941 6.50893 1.85097 6.14407 2.20973C5.7792 2.5685 5.57422 3.05509 5.57422 3.56246V45.6494" stroke="#E0E0E0" stroke-width="2" stroke-linecap="round" stroke-linejoin="round"/>
<path d="M32.8125 14.2209H48.6696C50.3265 14.2209 51.6696 15.5641 51.6696 17.2209V44.6019H32.8125V14.2209Z" fill="#009260" stroke="#E0E0E0" stroke-width="2" stroke-linecap="round" stroke-linejoin="round"/>
<path d="M13.9531 11.0779H21.2865" stroke="#E0E0E0" stroke-width="2" stroke-linecap="round" stroke-linejoin="round"/>
<path d="M1.38281 41.459L1.38281 26.7923" stroke="#E0E0E0" stroke-width="2" stroke-linecap="round" stroke-linejoin="round"/>
<path d="M55.8594 30.9824L55.8594 16.3158" stroke="#E0E0E0" stroke-width="2" stroke-linecap="round" stroke-linejoin="round"/>
<path d="M35.9531 10.0303L43.2865 10.0303" stroke="#E0E0E0" stroke-width="2" stroke-linecap="round" stroke-linejoin="round"/>
<path d="M17.0977 26.792H24.431" stroke="#E0E0E0" stroke-width="2" stroke-linecap="round" stroke-linejoin="round"/>
<path d="M13.9531 36.2209H21.2865" stroke="#E0E0E0" stroke-width="2" stroke-linecap="round" stroke-linejoin="round"/>
<path d="M40.1445 36.2209H44.335" stroke="#E0E0E0" stroke-width="2" stroke-linecap="round" stroke-linejoin="round"/>
<path d="M40.1445 26.792H44.335" stroke="#E0E0E0" stroke-width="2" stroke-linecap="round" stroke-linejoin="round"/>
</svg>
