<svg width="758" height="1024" viewBox="0 0 758 1024" fill="none" xmlns="http://www.w3.org/2000/svg">
<g clip-path="url(#clip0_705_2136)">
<rect width="758" height="1024" fill="#F7F9FB"/>
<rect width="758" height="1024" fill="#20282D"/>
<g filter="url(#filter0_f_705_2136)">
<ellipse cx="259.864" cy="282.652" rx="259.864" ry="282.652" transform="matrix(-0.725269 0.7401 0.214073 0.992989 351.1 68.686)" fill="url(#paint0_linear_705_2136)"/>
</g>
<g filter="url(#filter1_f_705_2136)">
<path d="M85.9376 223.962L13.0142 815.292L341.549 480.039L85.9376 223.962Z" fill="url(#paint1_linear_705_2136)"/>
</g>
<g filter="url(#filter2_f_705_2136)">
<circle cx="355.634" cy="355.634" r="355.634" transform="matrix(-0.90536 0.424645 0.424645 0.90536 594.857 98.686)" fill="url(#paint2_linear_705_2136)"/>
</g>
<g filter="url(#filter3_f_705_2136)">
<path d="M126.961 212.39L74.3125 830.075L635.568 566.827L126.961 212.39Z" fill="url(#paint3_linear_705_2136)"/>
</g>
<path d="M69.4349 66.9779C67.9234 66.9779 66.5303 66.7388 65.2555 66.2605C63.9989 65.7638 62.8972 65.0648 61.9502 64.1634C61.0214 63.262 60.293 62.2042 59.7649 60.9901C59.255 59.7759 59 58.4422 59 56.989C59 55.5357 59.255 54.202 59.7649 52.9879C60.293 51.7737 61.0305 50.716 61.9775 49.8146C62.9245 48.9132 64.0354 48.2233 65.3101 47.745C66.5849 47.2483 67.9872 47 69.5169 47C71.2105 47 72.7311 47.2851 74.0788 47.8554C75.4446 48.4257 76.5919 49.2535 77.5206 50.3389L74.6797 52.9879C73.9877 52.252 73.2319 51.7093 72.4124 51.3598C71.5929 50.9919 70.7006 50.8079 69.7354 50.8079C68.8067 50.8079 67.9598 50.9551 67.195 51.2494C66.4301 51.5438 65.7654 51.9669 65.2009 52.5188C64.6545 53.0706 64.2266 53.7237 63.917 54.4779C63.6256 55.2322 63.4799 56.0692 63.4799 56.989C63.4799 57.8904 63.6256 58.7182 63.917 59.4724C64.2266 60.2266 64.6545 60.8889 65.2009 61.4592C65.7654 62.011 66.421 62.4341 67.1677 62.7285C67.9325 63.0228 68.7702 63.17 69.6808 63.17C70.5549 63.17 71.4017 63.032 72.2212 62.7561C73.0589 62.4617 73.8693 61.9742 74.6524 61.2936L77.1655 64.5221C76.1275 65.3131 74.9165 65.9202 73.5324 66.3433C72.1666 66.7664 70.8008 66.9779 69.4349 66.9779ZM73.1227 63.9426V56.6854H77.1655V64.5221L73.1227 63.9426Z" fill="#10BB76"/>
<path d="M80.9758 66.6468V51.8013H85.0459V55.9956L84.4723 54.7815C84.9094 53.7329 85.6105 52.9419 86.5757 52.4084C87.5409 51.8565 88.7155 51.5806 90.0995 51.5806V55.5541C89.9174 55.5357 89.7535 55.5265 89.6078 55.5265C89.4621 55.5081 89.3073 55.4989 89.1434 55.4989C87.9779 55.4989 87.0309 55.8392 86.3025 56.5199C85.5923 57.1821 85.2372 58.2215 85.2372 59.638V66.6468H80.9758Z" fill="#10BB76"/>
<path d="M99.8202 66.8675C98.1447 66.8675 96.6696 66.5364 95.3949 65.8742C94.1383 65.2119 93.164 64.3105 92.472 63.17C91.78 62.011 91.434 60.6957 91.434 59.2241C91.434 57.734 91.7709 56.4187 92.4447 55.2781C93.1367 54.1192 94.0746 53.2178 95.2583 52.5739C96.442 51.9117 97.7805 51.5806 99.2738 51.5806C100.713 51.5806 102.005 51.8933 103.153 52.5188C104.318 53.1258 105.238 54.0088 105.912 55.1678C106.586 56.3083 106.922 57.6788 106.922 59.2792C106.922 59.4448 106.913 59.638 106.895 59.8587C106.877 60.0611 106.859 60.2542 106.841 60.4382H94.9032V57.9272H104.601L102.962 58.6722C102.962 57.8996 102.807 57.2281 102.497 56.6578C102.188 56.0876 101.76 55.6461 101.213 55.3333C100.667 55.0022 100.03 54.8366 99.3011 54.8366C98.5727 54.8366 97.9262 55.0022 97.3617 55.3333C96.8153 55.6461 96.3874 56.0968 96.0778 56.6854C95.7682 57.2557 95.6134 57.9363 95.6134 58.7274V59.3896C95.6134 60.199 95.7864 60.9165 96.1324 61.5419C96.4966 62.149 96.9974 62.6181 97.6348 62.9492C98.2904 63.262 99.0553 63.4183 99.9294 63.4183C100.712 63.4183 101.395 63.2987 101.978 63.0596C102.579 62.8205 103.125 62.4617 103.617 61.9834L105.884 64.4669C105.211 65.2395 104.364 65.8374 103.344 66.2605C102.324 66.6652 101.15 66.8675 99.8202 66.8675Z" fill="#10BB76"/>
<path d="M117.053 66.8675C115.378 66.8675 113.903 66.5364 112.628 65.8742C111.371 65.2119 110.397 64.3105 109.705 63.17C109.013 62.011 108.667 60.6957 108.667 59.2241C108.667 57.734 109.004 56.4187 109.678 55.2781C110.37 54.1192 111.307 53.2178 112.491 52.5739C113.675 51.9117 115.013 51.5806 116.507 51.5806C117.945 51.5806 119.238 51.8933 120.386 52.5188C121.551 53.1258 122.471 54.0088 123.145 55.1678C123.818 56.3083 124.155 57.6788 124.155 59.2792C124.155 59.4448 124.146 59.638 124.128 59.8587C124.11 60.0611 124.092 60.2542 124.073 60.4382H112.136V57.9272H121.833L120.194 58.6722C120.194 57.8996 120.04 57.2281 119.73 56.6578C119.421 56.0876 118.993 55.6461 118.446 55.3333C117.9 55.0022 117.263 54.8366 116.534 54.8366C115.806 54.8366 115.159 55.0022 114.595 55.3333C114.048 55.6461 113.62 56.0968 113.311 56.6854C113.001 57.2557 112.846 57.9363 112.846 58.7274V59.3896C112.846 60.199 113.019 60.9165 113.365 61.5419C113.73 62.149 114.23 62.6181 114.868 62.9492C115.523 63.262 116.288 63.4183 117.162 63.4183C117.945 63.4183 118.628 63.2987 119.211 63.0596C119.812 62.8205 120.358 62.4617 120.85 61.9834L123.117 64.4669C122.444 65.2395 121.597 65.8374 120.577 66.2605C119.557 66.6652 118.382 66.8675 117.053 66.8675Z" fill="#10BB76"/>
<path d="M135.679 66.8675C134.441 66.8675 133.357 66.5916 132.428 66.0397C131.5 65.4879 130.771 64.6508 130.243 63.5287C129.733 62.3882 129.478 60.9533 129.478 59.2241C129.478 57.4765 129.724 56.0416 130.216 54.9194C130.708 53.7973 131.418 52.9603 132.347 52.4084C133.275 51.8565 134.386 51.5806 135.679 51.5806C137.063 51.5806 138.302 51.9025 139.394 52.5464C140.505 53.1718 141.379 54.0548 142.017 55.1954C142.672 56.3359 143 57.6788 143 59.2241C143 60.7877 142.672 62.1398 142.017 63.2804C141.379 64.4209 140.505 65.3039 139.394 65.9294C138.302 66.5548 137.063 66.8675 135.679 66.8675ZM126.992 72V51.8013H131.063V54.8366L130.981 59.2517L131.254 63.6391V72H126.992ZM134.942 63.3355C135.652 63.3355 136.28 63.17 136.826 62.8389C137.391 62.5077 137.837 62.0386 138.165 61.4316C138.511 60.8061 138.684 60.0703 138.684 59.2241C138.684 58.3595 138.511 57.6236 138.165 57.0166C137.837 56.4095 137.391 55.9404 136.826 55.6093C136.28 55.2781 135.652 55.1126 134.942 55.1126C134.231 55.1126 133.594 55.2781 133.029 55.6093C132.465 55.9404 132.019 56.4095 131.691 57.0166C131.363 57.6236 131.199 58.3595 131.199 59.2241C131.199 60.0703 131.363 60.8061 131.691 61.4316C132.019 62.0386 132.465 62.5077 133.029 62.8389C133.594 63.17 134.231 63.3355 134.942 63.3355Z" fill="#10BB76"/>
<path d="M268.713 521.143C264.844 521.143 261.277 520.531 258.014 519.307C254.797 518.035 251.977 516.246 249.552 513.938C247.175 511.631 245.31 508.923 243.958 505.815C242.653 502.706 242 499.292 242 495.572C242 491.851 242.653 488.437 243.958 485.329C245.31 482.221 247.198 479.513 249.622 477.205C252.047 474.898 254.891 473.132 258.154 471.907C261.417 470.636 265.007 470 268.923 470C273.259 470 277.152 470.73 280.602 472.19C284.098 473.65 287.035 475.769 289.413 478.547L282.14 485.329C280.369 483.445 278.434 482.056 276.336 481.161C274.238 480.219 271.954 479.748 269.483 479.748C267.105 479.748 264.937 480.125 262.979 480.879C261.021 481.632 259.319 482.715 257.874 484.128C256.476 485.541 255.38 487.213 254.587 489.143C253.842 491.074 253.469 493.217 253.469 495.572C253.469 497.879 253.842 499.999 254.587 501.929C255.38 503.86 256.476 505.556 257.874 507.015C259.319 508.428 260.998 509.511 262.909 510.265C264.867 511.018 267.012 511.395 269.343 511.395C271.581 511.395 273.748 511.042 275.846 510.336C277.991 509.582 280.065 508.334 282.07 506.592L288.504 514.857C285.846 516.882 282.746 518.436 279.203 519.519C275.706 520.602 272.21 521.143 268.713 521.143ZM278.154 513.373V494.795H288.504V514.857L278.154 513.373Z" fill="white"/>
<path d="M298.258 520.296V482.291H308.678V493.029L307.209 489.921C308.328 487.236 310.123 485.211 312.594 483.845C315.065 482.433 318.072 481.726 321.615 481.726V491.898C321.149 491.851 320.729 491.828 320.356 491.828C319.983 491.781 319.587 491.757 319.167 491.757C316.183 491.757 313.759 492.628 311.894 494.371C310.076 496.066 309.167 498.727 309.167 502.353V520.296H298.258Z" fill="white"/>
<path d="M346.5 520.861C342.211 520.861 338.434 520.013 335.171 518.318C331.954 516.623 329.46 514.315 327.688 511.395C325.917 508.428 325.031 505.061 325.031 501.294C325.031 497.479 325.893 494.112 327.618 491.192C329.39 488.225 331.791 485.918 334.821 484.269C337.852 482.574 341.278 481.726 345.101 481.726C348.784 481.726 352.094 482.527 355.031 484.128C358.015 485.682 360.369 487.943 362.094 490.909C363.819 493.829 364.682 497.338 364.682 501.435C364.682 501.859 364.658 502.353 364.612 502.918C364.565 503.436 364.518 503.931 364.472 504.402H333.912V497.974H358.737L354.542 499.881C354.542 497.903 354.145 496.184 353.353 494.724C352.56 493.264 351.465 492.134 350.066 491.333C348.667 490.486 347.036 490.062 345.171 490.062C343.306 490.062 341.651 490.486 340.206 491.333C338.807 492.134 337.712 493.288 336.919 494.795C336.127 496.255 335.73 497.997 335.73 500.022V501.717C335.73 503.79 336.173 505.626 337.059 507.227C337.991 508.781 339.273 509.982 340.905 510.83C342.584 511.631 344.542 512.031 346.779 512.031C348.784 512.031 350.532 511.725 352.024 511.113C353.563 510.5 354.961 509.582 356.22 508.358L362.024 514.715C360.299 516.693 358.131 518.224 355.521 519.307C352.91 520.343 349.903 520.861 346.5 520.861Z" fill="white"/>
<path d="M390.616 520.861C386.327 520.861 382.551 520.013 379.287 518.318C376.07 516.623 373.576 514.315 371.805 511.395C370.033 508.428 369.147 505.061 369.147 501.294C369.147 497.479 370.01 494.112 371.735 491.192C373.506 488.225 375.907 485.918 378.938 484.269C381.968 482.574 385.394 481.726 389.217 481.726C392.9 481.726 396.21 482.527 399.147 484.128C402.131 485.682 404.485 487.943 406.21 490.909C407.935 493.829 408.798 497.338 408.798 501.435C408.798 501.859 408.775 502.353 408.728 502.918C408.681 503.436 408.635 503.931 408.588 504.402H378.028V497.974H402.854L398.658 499.881C398.658 497.903 398.262 496.184 397.469 494.724C396.677 493.264 395.581 492.134 394.182 491.333C392.784 490.486 391.152 490.062 389.287 490.062C387.422 490.062 385.767 490.486 384.322 491.333C382.924 492.134 381.828 493.288 381.035 494.795C380.243 496.255 379.847 497.997 379.847 500.022V501.717C379.847 503.79 380.29 505.626 381.175 507.227C382.108 508.781 383.39 509.982 385.021 510.83C386.7 511.631 388.658 512.031 390.896 512.031C392.9 512.031 394.649 511.725 396.14 511.113C397.679 510.5 399.077 509.582 400.336 508.358L406.14 514.715C404.416 516.693 402.248 518.224 399.637 519.307C397.026 520.343 394.019 520.861 390.616 520.861Z" fill="white"/>
<path d="M438.299 520.861C435.128 520.861 432.355 520.155 429.977 518.742C427.599 517.329 425.734 515.186 424.382 512.313C423.077 509.394 422.424 505.72 422.424 501.294C422.424 496.82 423.054 493.146 424.313 490.274C425.571 487.401 427.39 485.258 429.767 483.845C432.145 482.433 434.989 481.726 438.299 481.726C441.842 481.726 445.012 482.55 447.809 484.199C450.653 485.8 452.891 488.06 454.523 490.98C456.201 493.9 457.04 497.338 457.04 501.294C457.04 505.297 456.201 508.758 454.523 511.678C452.891 514.597 450.653 516.858 447.809 518.459C445.012 520.06 441.842 520.861 438.299 520.861ZM416.061 534V482.291H426.48V490.062L426.271 501.364L426.97 512.596V534H416.061ZM436.411 511.819C438.229 511.819 439.837 511.395 441.236 510.547C442.681 509.7 443.823 508.499 444.662 506.945C445.548 505.344 445.991 503.46 445.991 501.294C445.991 499.08 445.548 497.196 444.662 495.642C443.823 494.088 442.681 492.887 441.236 492.04C439.837 491.192 438.229 490.768 436.411 490.768C434.592 490.768 432.961 491.192 431.515 492.04C430.07 492.887 428.928 494.088 428.089 495.642C427.25 497.196 426.83 499.08 426.83 501.294C426.83 503.46 427.25 505.344 428.089 506.945C428.928 508.499 430.07 509.7 431.515 510.547C432.961 511.395 434.592 511.819 436.411 511.819Z" fill="white"/>
<path d="M400.272 550.664L392.08 573H386.64L378.448 550.664H383.248L389.392 568.424L395.504 550.664H400.272ZM419.438 563.752C419.438 564.392 419.395 564.968 419.31 565.48H406.35C406.457 566.76 406.905 567.763 407.694 568.488C408.483 569.213 409.454 569.576 410.606 569.576C412.27 569.576 413.454 568.861 414.158 567.432H418.99C418.478 569.139 417.497 570.547 416.046 571.656C414.595 572.744 412.814 573.288 410.702 573.288C408.995 573.288 407.459 572.915 406.094 572.168C404.75 571.4 403.694 570.323 402.926 568.936C402.179 567.549 401.806 565.949 401.806 564.136C401.806 562.301 402.179 560.691 402.926 559.304C403.673 557.917 404.718 556.851 406.062 556.104C407.406 555.357 408.953 554.984 410.702 554.984C412.387 554.984 413.891 555.347 415.214 556.072C416.558 556.797 417.593 557.832 418.318 559.176C419.065 560.499 419.438 562.024 419.438 563.752ZM414.798 562.472C414.777 561.32 414.361 560.403 413.55 559.72C412.739 559.016 411.747 558.664 410.574 558.664C409.465 558.664 408.526 559.005 407.758 559.688C407.011 560.349 406.553 561.277 406.382 562.472H414.798ZM432.532 555.016C434.644 555.016 436.351 555.688 437.652 557.032C438.953 558.355 439.604 560.211 439.604 562.6V573H435.124V563.208C435.124 561.8 434.772 560.723 434.068 559.976C433.364 559.208 432.404 558.824 431.188 558.824C429.951 558.824 428.969 559.208 428.244 559.976C427.54 560.723 427.188 561.8 427.188 563.208V573H422.708V555.272H427.188V557.48C427.785 556.712 428.543 556.115 429.46 555.688C430.399 555.24 431.423 555.016 432.532 555.016ZM442.712 564.072C442.712 562.28 443.064 560.691 443.768 559.304C444.494 557.917 445.475 556.851 446.712 556.104C447.95 555.357 449.326 554.984 450.84 554.984C451.992 554.984 453.091 555.24 454.136 555.752C455.182 556.243 456.014 556.904 456.632 557.736V549.32H461.176V573H456.632V570.376C456.078 571.251 455.299 571.955 454.296 572.488C453.294 573.021 452.131 573.288 450.808 573.288C449.315 573.288 447.95 572.904 446.712 572.136C445.475 571.368 444.494 570.291 443.768 568.904C443.064 567.496 442.712 565.885 442.712 564.072ZM456.664 564.136C456.664 563.048 456.451 562.12 456.024 561.352C455.598 560.563 455.022 559.965 454.296 559.56C453.571 559.133 452.792 558.92 451.96 558.92C451.128 558.92 450.36 559.123 449.656 559.528C448.952 559.933 448.376 560.531 447.928 561.32C447.502 562.088 447.288 563.005 447.288 564.072C447.288 565.139 447.502 566.077 447.928 566.888C448.376 567.677 448.952 568.285 449.656 568.712C450.382 569.139 451.15 569.352 451.96 569.352C452.792 569.352 453.571 569.149 454.296 568.744C455.022 568.317 455.598 567.72 456.024 566.952C456.451 566.163 456.664 565.224 456.664 564.136ZM473.424 573.288C471.717 573.288 470.181 572.915 468.816 572.168C467.45 571.4 466.373 570.323 465.584 568.936C464.816 567.549 464.432 565.949 464.432 564.136C464.432 562.323 464.826 560.723 465.616 559.336C466.426 557.949 467.525 556.883 468.912 556.136C470.298 555.368 471.845 554.984 473.552 554.984C475.258 554.984 476.805 555.368 478.192 556.136C479.578 556.883 480.666 557.949 481.456 559.336C482.266 560.723 482.672 562.323 482.672 564.136C482.672 565.949 482.256 567.549 481.424 568.936C480.613 570.323 479.504 571.4 478.096 572.168C476.709 572.915 475.152 573.288 473.424 573.288ZM473.424 569.384C474.234 569.384 474.992 569.192 475.696 568.808C476.421 568.403 476.997 567.805 477.424 567.016C477.85 566.227 478.064 565.267 478.064 564.136C478.064 562.451 477.616 561.16 476.72 560.264C475.845 559.347 474.768 558.888 473.488 558.888C472.208 558.888 471.13 559.347 470.256 560.264C469.402 561.16 468.976 562.451 468.976 564.136C468.976 565.821 469.392 567.123 470.224 568.04C471.077 568.936 472.144 569.384 473.424 569.384ZM490.438 558.024C491.014 557.085 491.761 556.349 492.678 555.816C493.617 555.283 494.683 555.016 495.878 555.016V559.72H494.694C493.286 559.72 492.219 560.051 491.494 560.712C490.79 561.373 490.438 562.525 490.438 564.168V573H485.958V555.272H490.438V558.024ZM505.68 573.288C504.229 573.288 502.928 573.032 501.776 572.52C500.624 571.987 499.706 571.272 499.024 570.376C498.362 569.48 498 568.488 497.936 567.4H502.448C502.533 568.083 502.864 568.648 503.44 569.096C504.037 569.544 504.773 569.768 505.648 569.768C506.501 569.768 507.162 569.597 507.632 569.256C508.122 568.915 508.368 568.477 508.368 567.944C508.368 567.368 508.069 566.941 507.472 566.664C506.896 566.365 505.968 566.045 504.688 565.704C503.365 565.384 502.277 565.053 501.424 564.712C500.592 564.371 499.866 563.848 499.248 563.144C498.65 562.44 498.352 561.491 498.352 560.296C498.352 559.315 498.629 558.419 499.184 557.608C499.76 556.797 500.57 556.157 501.616 555.688C502.682 555.219 503.93 554.984 505.36 554.984C507.472 554.984 509.157 555.517 510.416 556.584C511.674 557.629 512.368 559.048 512.496 560.84H508.208C508.144 560.136 507.845 559.581 507.312 559.176C506.8 558.749 506.106 558.536 505.232 558.536C504.421 558.536 503.792 558.685 503.344 558.984C502.917 559.283 502.704 559.699 502.704 560.232C502.704 560.829 503.002 561.288 503.6 561.608C504.197 561.907 505.125 562.216 506.384 562.536C507.664 562.856 508.72 563.187 509.552 563.528C510.384 563.869 511.098 564.403 511.696 565.128C512.314 565.832 512.634 566.771 512.656 567.944C512.656 568.968 512.368 569.885 511.792 570.696C511.237 571.507 510.426 572.147 509.36 572.616C508.314 573.064 507.088 573.288 505.68 573.288Z" fill="white"/>
</g>
<defs>
<filter id="filter0_f_705_2136" x="-174.863" y="1.40723" width="796" height="1080.55" filterUnits="userSpaceOnUse" color-interpolation-filters="sRGB">
<feFlood flood-opacity="0" result="BackgroundImageFix"/>
<feBlend mode="normal" in="SourceGraphic" in2="BackgroundImageFix" result="shape"/>
<feGaussianBlur stdDeviation="100" result="effect1_foregroundBlur_705_2136"/>
</filter>
<filter id="filter1_f_705_2136" x="-136.986" y="73.9614" width="628.535" height="891.331" filterUnits="userSpaceOnUse" color-interpolation-filters="sRGB">
<feFlood flood-opacity="0" result="BackgroundImageFix"/>
<feBlend mode="normal" in="SourceGraphic" in2="BackgroundImageFix" result="shape"/>
<feGaussianBlur stdDeviation="75" result="effect1_foregroundBlur_705_2136"/>
</filter>
<filter id="filter2_f_705_2136" x="-131.82" y="15.9629" width="1111.44" height="1111.44" filterUnits="userSpaceOnUse" color-interpolation-filters="sRGB">
<feFlood flood-opacity="0" result="BackgroundImageFix"/>
<feBlend mode="normal" in="SourceGraphic" in2="BackgroundImageFix" result="shape"/>
<feGaussianBlur stdDeviation="100" result="effect1_foregroundBlur_705_2136"/>
</filter>
<filter id="filter3_f_705_2136" x="-75.6875" y="62.3896" width="861.256" height="917.686" filterUnits="userSpaceOnUse" color-interpolation-filters="sRGB">
<feFlood flood-opacity="0" result="BackgroundImageFix"/>
<feBlend mode="normal" in="SourceGraphic" in2="BackgroundImageFix" result="shape"/>
<feGaussianBlur stdDeviation="75" result="effect1_foregroundBlur_705_2136"/>
</filter>
<linearGradient id="paint0_linear_705_2136" x1="53.7219" y1="38.9552" x2="456.338" y2="532.781" gradientUnits="userSpaceOnUse">
<stop stop-color="#00603F"/>
<stop offset="1" stop-color="#009260" stop-opacity="0"/>
</linearGradient>
<linearGradient id="paint1_linear_705_2136" x1="85.9376" y1="223.962" x2="430.477" y2="561.597" gradientUnits="userSpaceOnUse">
<stop stop-color="#009260"/>
<stop offset="1" stop-color="#009260" stop-opacity="0.37"/>
</linearGradient>
<linearGradient id="paint2_linear_705_2136" x1="73.5206" y1="49.0137" x2="569.927" y2="711.269" gradientUnits="userSpaceOnUse">
<stop stop-color="#00603F"/>
<stop offset="1" stop-color="#009260" stop-opacity="0"/>
</linearGradient>
<linearGradient id="paint3_linear_705_2136" x1="126.961" y1="212.39" x2="430.934" y2="860.472" gradientUnits="userSpaceOnUse">
<stop stop-color="#009260"/>
<stop offset="1" stop-color="#009260" stop-opacity="0.37"/>
</linearGradient>
<clipPath id="clip0_705_2136">
<rect width="758" height="1024" fill="white"/>
</clipPath>
</defs>
</svg>
