<svg width="1920" height="1233" viewBox="0 0 1920 1233" fill="none" xmlns="http://www.w3.org/2000/svg">
<g clip-path="url(#clip0_680_3513)">
<rect width="1920" height="1233" fill="#001726"/>
<rect width="1920" height="1233" fill="black" fill-opacity="0.2"/>
<rect width="1920" height="1233" fill="black" fill-opacity="0.2"/>
<path d="M0 1233C69.1348 1231.49 221.94 1208.08 280.085 1126.55C352.765 1024.64 379.355 904.57 394.718 758.265C410.082 611.959 357.492 429.834 550.124 389.979C742.756 350.123 851.481 642.734 981.478 687.13C1111.47 731.526 1428.19 758.769 1563.51 425.799C1671.76 159.422 1664.16 30.9427 1646.83 0" stroke="white" stroke-width="4" stroke-dasharray="20 20"/>
<path d="M818.058 1512.77C797.231 1356.76 832.515 1063.4 1140.26 1138.06C1524.94 1231.39 1627.13 1125.89 1699.14 1022.15C1771.15 918.404 1868.9 918.646 1848.96 1033.74C1829.01 1148.84 1578.38 1076.9 1598.32 961.8C1618.27 846.703 1931.26 436.756 1986.62 655.789" stroke="white" stroke-width="4" stroke-dasharray="20 20"/>
</g>
<defs>
<clipPath id="clip0_680_3513">
<rect width="1920" height="1233" fill="white"/>
</clipPath>
</defs>
</svg>
