<svg width="1259" height="1564" viewBox="0 0 1259 1564" fill="none" xmlns="http://www.w3.org/2000/svg">
<path d="M1.01362 1510.55C60.8353 1475.87 183.374 1381.62 194.957 1282.16C209.436 1157.83 174.782 1039.83 117.635 904.274C60.4877 768.718 -73.462 634.582 76.0225 506.715C225.507 378.848 461.94 582.665 597.223 558.816C732.506 534.967 1023.05 405.988 980.888 49.0541C947.154 -236.493 878.495 -345.353 848.381 -364.09" stroke="white" stroke-width="4" stroke-dasharray="20 20"/>
<path d="M639.059 1574.77C618.233 1418.76 653.517 1125.4 961.262 1200.06C1345.94 1293.39 1448.13 1187.89 1520.14 1084.15C1592.15 980.404 1689.91 980.646 1669.96 1095.74C1650.01 1210.84 1399.38 1138.9 1419.33 1023.8C1439.27 908.703 1752.26 498.756 1807.63 717.789" stroke="white" stroke-width="4" stroke-dasharray="20 20"/>
</svg>
