<svg width="1920" height="1093" viewBox="0 0 1920 1093" fill="none" xmlns="http://www.w3.org/2000/svg">
<g clip-path="url(#clip0_626_1893)">
<rect width="1920" height="1093" fill="white"/>
<g opacity="0.2" filter="url(#filter0_ddd_626_1893)">
<rect x="-25" y="746.752" width="153" height="153" rx="76.5" transform="rotate(-32.2985 -25 746.752)" fill="url(#paint0_linear_626_1893)"/>
<path d="M100.174 794.328C96.1216 796.889 91.9865 798.617 87.7685 799.51C83.5685 800.324 79.4447 800.34 75.3971 799.558C71.3983 798.744 67.6748 797.177 64.2265 794.857C60.827 792.506 57.9108 789.406 55.478 785.557C53.0451 781.709 51.4959 777.745 50.8303 773.665C50.2135 769.555 50.42 765.504 51.4496 761.512C52.4792 757.52 54.3023 753.811 56.919 750.384C59.5049 746.908 62.8482 743.874 66.949 741.282C71.4892 738.412 76.043 736.59 80.6103 735.817C85.2264 735.013 89.6878 735.261 93.9946 736.561L90.8134 748.39C87.7264 747.614 84.7919 747.458 82.0099 747.921C79.1971 748.336 76.497 749.361 73.9096 750.996C71.4198 752.57 69.3961 754.395 67.8384 756.47C66.2807 758.546 65.2071 760.793 64.6176 763.211C64.0769 765.598 64.0229 768.053 64.4556 770.575C64.9371 773.066 65.9477 775.53 67.4875 777.966C68.9965 780.353 70.7729 782.298 72.8166 783.802C74.9092 785.275 77.1651 786.303 79.5843 786.888C82.0216 787.392 84.4874 787.402 86.9817 786.916C89.5249 786.399 92.0169 785.37 94.4579 783.827C96.8012 782.345 98.8404 780.545 100.575 778.425C102.328 776.226 103.685 773.562 104.644 770.432L116.786 774.724C115.328 778.577 113.097 782.237 110.095 785.703C107.142 789.138 103.835 792.013 100.174 794.328ZM104.978 780.04L92.8293 760.821L103.667 753.97L116.786 774.724L104.978 780.04Z" fill="white"/>
</g>
<g opacity="0.2" filter="url(#filter1_ddd_626_1893)">
<rect x="279.88" y="390.511" width="153" height="153" rx="76.5" transform="rotate(22.4265 279.88 390.511)" fill="url(#paint1_linear_626_1893)"/>
<path d="M313.328 520.177C308.897 518.348 305.098 515.97 301.933 513.042C298.843 510.084 296.448 506.726 294.75 502.97C293.104 499.236 292.233 495.291 292.136 491.136C292.092 487.003 292.939 482.832 294.676 478.623C296.413 474.414 298.755 470.86 301.701 467.961C304.7 465.084 308.126 462.913 311.98 461.448C315.834 459.983 319.915 459.329 324.223 459.487C328.554 459.591 332.962 460.568 337.446 462.419C342.412 464.468 346.529 467.133 349.798 470.415C353.12 473.72 355.494 477.505 356.92 481.772L345.425 486.006C344.276 483.038 342.709 480.552 340.724 478.548C338.761 476.491 336.365 474.879 333.536 473.711C330.813 472.587 328.155 471.989 325.56 471.916C322.966 471.843 320.512 472.264 318.197 473.179C315.936 474.117 313.901 475.49 312.092 477.3C310.336 479.132 308.909 481.379 307.809 484.043C306.732 486.654 306.17 489.227 306.122 491.764C306.128 494.323 306.592 496.759 307.512 499.071C308.507 501.353 309.923 503.371 311.76 505.127C313.651 506.905 315.931 508.345 318.6 509.446C321.163 510.504 323.81 511.129 326.542 511.321C329.35 511.482 332.308 511.051 335.418 510.027L338.926 522.418C334.938 523.453 330.662 523.746 326.099 523.296C321.589 522.869 317.332 521.829 313.328 520.177ZM327.767 515.848L336.441 494.831L348.293 499.722L338.926 522.418L327.767 515.848Z" fill="white"/>
</g>
<g opacity="0.2" filter="url(#filter2_ddd_626_1893)">
<rect x="1510.37" y="596" width="153" height="153" rx="76.5" transform="rotate(22.4265 1510.37 596)" fill="url(#paint2_linear_626_1893)"/>
<path d="M1543.82 725.666C1539.39 723.837 1535.59 721.459 1532.42 718.531C1529.33 715.572 1526.94 712.215 1525.24 708.459C1523.59 704.724 1522.72 700.78 1522.63 696.625C1522.58 692.491 1523.43 688.32 1525.17 684.112C1526.9 679.903 1529.24 676.349 1532.19 673.45C1535.19 670.572 1538.62 668.402 1542.47 666.937C1546.32 665.472 1550.4 664.818 1554.71 664.975C1559.04 665.079 1563.45 666.057 1567.94 667.908C1572.9 669.957 1577.02 672.622 1580.29 675.904C1583.61 679.208 1585.98 682.994 1587.41 687.261L1575.91 691.495C1574.76 688.527 1573.2 686.041 1571.21 684.037C1569.25 681.98 1566.85 680.368 1564.02 679.2C1561.3 678.076 1558.64 677.478 1556.05 677.405C1553.46 677.332 1551 677.753 1548.69 678.668C1546.43 679.605 1544.39 680.979 1542.58 682.789C1540.83 684.62 1539.4 686.868 1538.3 689.532C1537.22 692.142 1536.66 694.716 1536.61 697.253C1536.62 699.812 1537.08 702.248 1538 704.56C1539 706.841 1540.41 708.86 1542.25 710.616C1544.14 712.394 1546.42 713.833 1549.09 714.935C1551.65 715.993 1554.3 716.618 1557.03 716.81C1559.84 716.971 1562.8 716.54 1565.91 715.516L1569.42 727.907C1565.43 728.941 1561.15 729.234 1556.59 728.785C1552.08 728.358 1547.82 727.318 1543.82 725.666ZM1558.26 721.337L1566.93 700.32L1578.78 705.211L1569.42 727.907L1558.26 721.337Z" fill="white"/>
</g>
<g opacity="0.2" filter="url(#filter3_ddd_626_1893)">
<rect x="1339.67" y="105" width="153" height="153" rx="76.5" transform="rotate(12.3272 1339.67 105)" fill="url(#paint3_linear_626_1893)"/>
<path d="M1395.33 226.791C1390.65 225.767 1386.49 224.092 1382.86 221.765C1379.3 219.394 1376.36 216.508 1374.02 213.108C1371.75 209.72 1370.2 205.99 1369.38 201.916C1368.61 197.854 1368.71 193.6 1369.68 189.152C1370.65 184.703 1372.34 180.794 1374.73 177.423C1377.18 174.064 1380.17 171.326 1383.71 169.208C1387.24 167.091 1391.15 165.731 1395.42 165.131C1399.7 164.473 1404.21 164.663 1408.95 165.699C1414.2 166.845 1418.72 168.748 1422.51 171.406C1426.36 174.076 1429.36 177.386 1431.51 181.337L1420.94 187.522C1419.29 184.801 1417.31 182.628 1415 181.003C1412.71 179.322 1410.07 178.155 1407.08 177.502C1404.2 176.873 1401.48 176.75 1398.91 177.133C1396.35 177.516 1394 178.361 1391.89 179.668C1389.82 180.987 1388.06 182.696 1386.6 184.795C1385.19 186.906 1384.18 189.37 1383.56 192.185C1382.96 194.944 1382.86 197.576 1383.26 200.082C1383.71 202.6 1384.59 204.917 1385.91 207.032C1387.29 209.104 1389.03 210.843 1391.15 212.249C1393.32 213.668 1395.82 214.686 1398.64 215.302C1401.35 215.894 1404.07 216.045 1406.79 215.755C1409.58 215.422 1412.42 214.478 1415.3 212.925L1420.93 224.508C1417.18 226.227 1413.02 227.265 1408.45 227.623C1403.94 227.993 1399.56 227.716 1395.33 226.791ZM1408.79 219.997L1413.64 197.785L1426.17 200.522L1420.93 224.508L1408.79 219.997Z" fill="white"/>
</g>
<g opacity="0.2" filter="url(#filter4_ddd_626_1893)">
<rect x="1846.67" y="410" width="153" height="153" rx="76.5" transform="rotate(12.3272 1846.67 410)" fill="url(#paint4_linear_626_1893)"/>
<path d="M1902.33 531.791C1897.65 530.767 1893.49 529.092 1889.86 526.765C1886.3 524.394 1883.36 521.508 1881.02 518.108C1878.75 514.72 1877.2 510.99 1876.38 506.916C1875.61 502.854 1875.71 498.6 1876.68 494.152C1877.65 489.703 1879.34 485.794 1881.73 482.423C1884.18 479.064 1887.17 476.326 1890.71 474.208C1894.24 472.091 1898.15 470.731 1902.42 470.131C1906.7 469.473 1911.21 469.663 1915.95 470.699C1921.2 471.845 1925.72 473.748 1929.51 476.406C1933.36 479.076 1936.36 482.386 1938.51 486.337L1927.94 492.522C1926.29 489.801 1924.31 487.628 1922 486.003C1919.71 484.322 1917.07 483.155 1914.08 482.502C1911.2 481.873 1908.48 481.75 1905.91 482.133C1903.35 482.516 1901 483.361 1898.89 484.668C1896.82 485.987 1895.06 487.696 1893.6 489.795C1892.19 491.906 1891.18 494.37 1890.56 497.185C1889.96 499.944 1889.86 502.576 1890.26 505.082C1890.71 507.6 1891.59 509.917 1892.91 512.032C1894.29 514.104 1896.03 515.843 1898.15 517.249C1900.32 518.668 1902.82 519.686 1905.64 520.302C1908.35 520.894 1911.07 521.045 1913.79 520.755C1916.58 520.422 1919.42 519.478 1922.3 517.925L1927.93 529.508C1924.18 531.227 1920.02 532.265 1915.45 532.623C1910.94 532.993 1906.56 532.716 1902.33 531.791ZM1915.79 524.997L1920.64 502.785L1933.17 505.522L1927.93 529.508L1915.79 524.997Z" fill="white"/>
</g>
<g opacity="0.2" filter="url(#filter5_ddd_626_1893)">
<rect x="606.664" y="559" width="153" height="153" rx="76.5" transform="rotate(12.3272 606.664 559)" fill="url(#paint5_linear_626_1893)"/>
<path d="M662.331 680.791C657.648 679.767 653.492 678.092 649.862 675.765C646.301 673.394 643.355 670.508 641.024 667.108C638.749 663.72 637.2 659.99 636.375 655.916C635.608 651.854 635.71 647.6 636.682 643.152C637.654 638.703 639.336 634.794 641.728 631.423C644.176 628.064 647.169 625.326 650.706 623.208C654.243 621.091 658.146 619.731 662.416 619.131C666.698 618.473 671.208 618.663 675.948 619.699C681.196 620.845 685.716 622.748 689.51 625.406C693.36 628.076 696.361 631.386 698.513 635.337L687.939 641.522C686.287 638.801 684.309 636.628 682.003 635.003C679.71 633.322 677.069 632.155 674.078 631.502C671.201 630.873 668.478 630.75 665.912 631.133C663.345 631.516 661.003 632.361 658.884 633.668C656.822 634.987 655.06 636.696 653.596 638.795C652.189 640.906 651.177 643.37 650.562 646.185C649.959 648.944 649.857 651.576 650.255 654.082C650.71 656.6 651.593 658.917 652.904 661.032C654.284 663.104 656.032 664.843 658.149 666.249C660.322 667.668 662.819 668.686 665.64 669.302C668.348 669.894 671.064 670.045 673.788 669.755C676.581 669.422 679.417 668.478 682.299 666.925L687.926 678.508C684.181 680.227 680.022 681.265 675.451 681.623C670.936 681.993 666.563 681.716 662.331 680.791ZM675.787 673.997L680.642 651.785L693.168 654.522L687.926 678.508L675.787 673.997Z" fill="white"/>
</g>
</g>
<defs>
<filter id="filter0_ddd_626_1893" x="-28" y="663" width="217.08" height="217.08" filterUnits="userSpaceOnUse" color-interpolation-filters="sRGB">
<feFlood flood-opacity="0" result="BackgroundImageFix"/>
<feColorMatrix in="SourceAlpha" type="matrix" values="0 0 0 0 0 0 0 0 0 0 0 0 0 0 0 0 0 0 127 0" result="hardAlpha"/>
<feOffset dy="1"/>
<feGaussianBlur stdDeviation="1.5"/>
<feColorMatrix type="matrix" values="0 0 0 0 0 0 0 0 0 0 0 0 0 0 0 0 0 0 0.2 0"/>
<feBlend mode="normal" in2="BackgroundImageFix" result="effect1_dropShadow_626_1893"/>
<feColorMatrix in="SourceAlpha" type="matrix" values="0 0 0 0 0 0 0 0 0 0 0 0 0 0 0 0 0 0 127 0" result="hardAlpha"/>
<feOffset dy="2"/>
<feGaussianBlur stdDeviation="0.5"/>
<feColorMatrix type="matrix" values="0 0 0 0 0 0 0 0 0 0 0 0 0 0 0 0 0 0 0.12 0"/>
<feBlend mode="normal" in2="effect1_dropShadow_626_1893" result="effect2_dropShadow_626_1893"/>
<feColorMatrix in="SourceAlpha" type="matrix" values="0 0 0 0 0 0 0 0 0 0 0 0 0 0 0 0 0 0 127 0" result="hardAlpha"/>
<feOffset dy="1"/>
<feGaussianBlur stdDeviation="0.5"/>
<feColorMatrix type="matrix" values="0 0 0 0 0 0 0 0 0 0 0 0 0 0 0 0 0 0 0.14 0"/>
<feBlend mode="normal" in2="effect2_dropShadow_626_1893" result="effect3_dropShadow_626_1893"/>
<feBlend mode="normal" in="SourceGraphic" in2="effect3_dropShadow_626_1893" result="shape"/>
</filter>
<filter id="filter1_ddd_626_1893" x="218.511" y="388.511" width="205.798" height="205.798" filterUnits="userSpaceOnUse" color-interpolation-filters="sRGB">
<feFlood flood-opacity="0" result="BackgroundImageFix"/>
<feColorMatrix in="SourceAlpha" type="matrix" values="0 0 0 0 0 0 0 0 0 0 0 0 0 0 0 0 0 0 127 0" result="hardAlpha"/>
<feOffset dy="1"/>
<feGaussianBlur stdDeviation="1.5"/>
<feColorMatrix type="matrix" values="0 0 0 0 0 0 0 0 0 0 0 0 0 0 0 0 0 0 0.2 0"/>
<feBlend mode="normal" in2="BackgroundImageFix" result="effect1_dropShadow_626_1893"/>
<feColorMatrix in="SourceAlpha" type="matrix" values="0 0 0 0 0 0 0 0 0 0 0 0 0 0 0 0 0 0 127 0" result="hardAlpha"/>
<feOffset dy="2"/>
<feGaussianBlur stdDeviation="0.5"/>
<feColorMatrix type="matrix" values="0 0 0 0 0 0 0 0 0 0 0 0 0 0 0 0 0 0 0.12 0"/>
<feBlend mode="normal" in2="effect1_dropShadow_626_1893" result="effect2_dropShadow_626_1893"/>
<feColorMatrix in="SourceAlpha" type="matrix" values="0 0 0 0 0 0 0 0 0 0 0 0 0 0 0 0 0 0 127 0" result="hardAlpha"/>
<feOffset dy="1"/>
<feGaussianBlur stdDeviation="0.5"/>
<feColorMatrix type="matrix" values="0 0 0 0 0 0 0 0 0 0 0 0 0 0 0 0 0 0 0.14 0"/>
<feBlend mode="normal" in2="effect2_dropShadow_626_1893" result="effect3_dropShadow_626_1893"/>
<feBlend mode="normal" in="SourceGraphic" in2="effect3_dropShadow_626_1893" result="shape"/>
</filter>
<filter id="filter2_ddd_626_1893" x="1449" y="594" width="205.798" height="205.798" filterUnits="userSpaceOnUse" color-interpolation-filters="sRGB">
<feFlood flood-opacity="0" result="BackgroundImageFix"/>
<feColorMatrix in="SourceAlpha" type="matrix" values="0 0 0 0 0 0 0 0 0 0 0 0 0 0 0 0 0 0 127 0" result="hardAlpha"/>
<feOffset dy="1"/>
<feGaussianBlur stdDeviation="1.5"/>
<feColorMatrix type="matrix" values="0 0 0 0 0 0 0 0 0 0 0 0 0 0 0 0 0 0 0.2 0"/>
<feBlend mode="normal" in2="BackgroundImageFix" result="effect1_dropShadow_626_1893"/>
<feColorMatrix in="SourceAlpha" type="matrix" values="0 0 0 0 0 0 0 0 0 0 0 0 0 0 0 0 0 0 127 0" result="hardAlpha"/>
<feOffset dy="2"/>
<feGaussianBlur stdDeviation="0.5"/>
<feColorMatrix type="matrix" values="0 0 0 0 0 0 0 0 0 0 0 0 0 0 0 0 0 0 0.12 0"/>
<feBlend mode="normal" in2="effect1_dropShadow_626_1893" result="effect2_dropShadow_626_1893"/>
<feColorMatrix in="SourceAlpha" type="matrix" values="0 0 0 0 0 0 0 0 0 0 0 0 0 0 0 0 0 0 127 0" result="hardAlpha"/>
<feOffset dy="1"/>
<feGaussianBlur stdDeviation="0.5"/>
<feColorMatrix type="matrix" values="0 0 0 0 0 0 0 0 0 0 0 0 0 0 0 0 0 0 0.14 0"/>
<feBlend mode="normal" in2="effect2_dropShadow_626_1893" result="effect3_dropShadow_626_1893"/>
<feBlend mode="normal" in="SourceGraphic" in2="effect3_dropShadow_626_1893" result="shape"/>
</filter>
<filter id="filter3_ddd_626_1893" x="1304" y="103" width="188.138" height="188.137" filterUnits="userSpaceOnUse" color-interpolation-filters="sRGB">
<feFlood flood-opacity="0" result="BackgroundImageFix"/>
<feColorMatrix in="SourceAlpha" type="matrix" values="0 0 0 0 0 0 0 0 0 0 0 0 0 0 0 0 0 0 127 0" result="hardAlpha"/>
<feOffset dy="1"/>
<feGaussianBlur stdDeviation="1.5"/>
<feColorMatrix type="matrix" values="0 0 0 0 0 0 0 0 0 0 0 0 0 0 0 0 0 0 0.2 0"/>
<feBlend mode="normal" in2="BackgroundImageFix" result="effect1_dropShadow_626_1893"/>
<feColorMatrix in="SourceAlpha" type="matrix" values="0 0 0 0 0 0 0 0 0 0 0 0 0 0 0 0 0 0 127 0" result="hardAlpha"/>
<feOffset dy="2"/>
<feGaussianBlur stdDeviation="0.5"/>
<feColorMatrix type="matrix" values="0 0 0 0 0 0 0 0 0 0 0 0 0 0 0 0 0 0 0.12 0"/>
<feBlend mode="normal" in2="effect1_dropShadow_626_1893" result="effect2_dropShadow_626_1893"/>
<feColorMatrix in="SourceAlpha" type="matrix" values="0 0 0 0 0 0 0 0 0 0 0 0 0 0 0 0 0 0 127 0" result="hardAlpha"/>
<feOffset dy="1"/>
<feGaussianBlur stdDeviation="0.5"/>
<feColorMatrix type="matrix" values="0 0 0 0 0 0 0 0 0 0 0 0 0 0 0 0 0 0 0.14 0"/>
<feBlend mode="normal" in2="effect2_dropShadow_626_1893" result="effect3_dropShadow_626_1893"/>
<feBlend mode="normal" in="SourceGraphic" in2="effect3_dropShadow_626_1893" result="shape"/>
</filter>
<filter id="filter4_ddd_626_1893" x="1811" y="408" width="188.137" height="188.137" filterUnits="userSpaceOnUse" color-interpolation-filters="sRGB">
<feFlood flood-opacity="0" result="BackgroundImageFix"/>
<feColorMatrix in="SourceAlpha" type="matrix" values="0 0 0 0 0 0 0 0 0 0 0 0 0 0 0 0 0 0 127 0" result="hardAlpha"/>
<feOffset dy="1"/>
<feGaussianBlur stdDeviation="1.5"/>
<feColorMatrix type="matrix" values="0 0 0 0 0 0 0 0 0 0 0 0 0 0 0 0 0 0 0.2 0"/>
<feBlend mode="normal" in2="BackgroundImageFix" result="effect1_dropShadow_626_1893"/>
<feColorMatrix in="SourceAlpha" type="matrix" values="0 0 0 0 0 0 0 0 0 0 0 0 0 0 0 0 0 0 127 0" result="hardAlpha"/>
<feOffset dy="2"/>
<feGaussianBlur stdDeviation="0.5"/>
<feColorMatrix type="matrix" values="0 0 0 0 0 0 0 0 0 0 0 0 0 0 0 0 0 0 0.12 0"/>
<feBlend mode="normal" in2="effect1_dropShadow_626_1893" result="effect2_dropShadow_626_1893"/>
<feColorMatrix in="SourceAlpha" type="matrix" values="0 0 0 0 0 0 0 0 0 0 0 0 0 0 0 0 0 0 127 0" result="hardAlpha"/>
<feOffset dy="1"/>
<feGaussianBlur stdDeviation="0.5"/>
<feColorMatrix type="matrix" values="0 0 0 0 0 0 0 0 0 0 0 0 0 0 0 0 0 0 0.14 0"/>
<feBlend mode="normal" in2="effect2_dropShadow_626_1893" result="effect3_dropShadow_626_1893"/>
<feBlend mode="normal" in="SourceGraphic" in2="effect3_dropShadow_626_1893" result="shape"/>
</filter>
<filter id="filter5_ddd_626_1893" x="570.999" y="557" width="188.138" height="188.137" filterUnits="userSpaceOnUse" color-interpolation-filters="sRGB">
<feFlood flood-opacity="0" result="BackgroundImageFix"/>
<feColorMatrix in="SourceAlpha" type="matrix" values="0 0 0 0 0 0 0 0 0 0 0 0 0 0 0 0 0 0 127 0" result="hardAlpha"/>
<feOffset dy="1"/>
<feGaussianBlur stdDeviation="1.5"/>
<feColorMatrix type="matrix" values="0 0 0 0 0 0 0 0 0 0 0 0 0 0 0 0 0 0 0.2 0"/>
<feBlend mode="normal" in2="BackgroundImageFix" result="effect1_dropShadow_626_1893"/>
<feColorMatrix in="SourceAlpha" type="matrix" values="0 0 0 0 0 0 0 0 0 0 0 0 0 0 0 0 0 0 127 0" result="hardAlpha"/>
<feOffset dy="2"/>
<feGaussianBlur stdDeviation="0.5"/>
<feColorMatrix type="matrix" values="0 0 0 0 0 0 0 0 0 0 0 0 0 0 0 0 0 0 0.12 0"/>
<feBlend mode="normal" in2="effect1_dropShadow_626_1893" result="effect2_dropShadow_626_1893"/>
<feColorMatrix in="SourceAlpha" type="matrix" values="0 0 0 0 0 0 0 0 0 0 0 0 0 0 0 0 0 0 127 0" result="hardAlpha"/>
<feOffset dy="1"/>
<feGaussianBlur stdDeviation="0.5"/>
<feColorMatrix type="matrix" values="0 0 0 0 0 0 0 0 0 0 0 0 0 0 0 0 0 0 0.14 0"/>
<feBlend mode="normal" in2="effect2_dropShadow_626_1893" result="effect3_dropShadow_626_1893"/>
<feBlend mode="normal" in="SourceGraphic" in2="effect3_dropShadow_626_1893" result="shape"/>
</filter>
<linearGradient id="paint0_linear_626_1893" x1="62.9605" y1="1001.87" x2="66.9205" y2="603.233" gradientUnits="userSpaceOnUse">
<stop stop-color="#10BB76"/>
<stop offset="0.517233" stop-color="#0C9463" stop-opacity="0.826585"/>
<stop offset="1" stop-color="#001726" stop-opacity="0.28"/>
</linearGradient>
<linearGradient id="paint1_linear_626_1893" x1="367.84" y1="645.632" x2="371.8" y2="246.992" gradientUnits="userSpaceOnUse">
<stop stop-color="#10BB76"/>
<stop offset="0.517233" stop-color="#0C9463" stop-opacity="0.826585"/>
<stop offset="1" stop-color="#001726" stop-opacity="0.28"/>
</linearGradient>
<linearGradient id="paint2_linear_626_1893" x1="1598.33" y1="851.121" x2="1602.29" y2="452.481" gradientUnits="userSpaceOnUse">
<stop stop-color="#10BB76"/>
<stop offset="0.517233" stop-color="#0C9463" stop-opacity="0.826585"/>
<stop offset="1" stop-color="#001726" stop-opacity="0.28"/>
</linearGradient>
<linearGradient id="paint3_linear_626_1893" x1="1427.63" y1="360.121" x2="1431.59" y2="-38.5191" gradientUnits="userSpaceOnUse">
<stop stop-color="#10BB76"/>
<stop offset="0.517233" stop-color="#0C9463" stop-opacity="0.826585"/>
<stop offset="1" stop-color="#001726" stop-opacity="0.28"/>
</linearGradient>
<linearGradient id="paint4_linear_626_1893" x1="1934.63" y1="665.121" x2="1938.59" y2="266.481" gradientUnits="userSpaceOnUse">
<stop stop-color="#10BB76"/>
<stop offset="0.517233" stop-color="#0C9463" stop-opacity="0.826585"/>
<stop offset="1" stop-color="#001726" stop-opacity="0.28"/>
</linearGradient>
<linearGradient id="paint5_linear_626_1893" x1="694.625" y1="814.121" x2="698.585" y2="415.481" gradientUnits="userSpaceOnUse">
<stop stop-color="#10BB76"/>
<stop offset="0.517233" stop-color="#0C9463" stop-opacity="0.826585"/>
<stop offset="1" stop-color="#001726" stop-opacity="0.28"/>
</linearGradient>
<clipPath id="clip0_626_1893">
<rect width="1920" height="1093" fill="white"/>
</clipPath>
</defs>
</svg>
