<svg width="1596" height="366" viewBox="0 0 1596 366" fill="none" xmlns="http://www.w3.org/2000/svg">
<g clip-path="url(#clip0_698_2492)">
<rect width="1596" height="366" rx="20" fill="#FCFCFD"/>
<g opacity="0.2" filter="url(#filter0_ddd_698_2492)">
<rect x="-25" y="396.753" width="153" height="153" rx="76.5" transform="rotate(-32.2985 -25 396.753)" fill="url(#paint0_linear_698_2492)"/>
</g>
<g opacity="0.2" filter="url(#filter1_ddd_698_2492)">
<rect x="279.879" y="40.5107" width="153" height="153" rx="76.5" transform="rotate(22.4265 279.879 40.5107)" fill="url(#paint1_linear_698_2492)"/>
<path d="M313.328 170.176C308.897 168.347 305.098 165.969 301.933 163.041C298.843 160.083 296.448 156.725 294.75 152.969C293.104 149.235 292.233 145.29 292.136 141.135C292.092 137.002 292.939 132.831 294.676 128.622C296.413 124.413 298.755 120.859 301.701 117.96C304.7 115.083 308.126 112.912 311.98 111.447C315.834 109.982 319.915 109.328 324.223 109.486C328.554 109.59 332.962 110.567 337.446 112.418C342.412 114.467 346.529 117.132 349.798 120.415C353.12 123.719 355.494 127.504 356.92 131.771L345.425 136.005C344.276 133.037 342.709 130.551 340.724 128.547C338.761 126.49 336.365 124.878 333.536 123.71C330.813 122.586 328.155 121.988 325.56 121.915C322.966 121.842 320.512 122.263 318.197 123.178C315.936 124.116 313.901 125.489 312.092 127.299C310.336 129.131 308.909 131.378 307.809 134.042C306.732 136.653 306.17 139.226 306.122 141.763C306.128 144.322 306.592 146.758 307.512 149.07C308.507 151.352 309.923 153.37 311.76 155.126C313.651 156.904 315.931 158.344 318.6 159.445C321.163 160.503 323.81 161.128 326.542 161.32C329.35 161.481 332.308 161.05 335.418 160.026L338.926 172.417C334.938 173.452 330.662 173.745 326.099 173.295C321.589 172.868 317.332 171.828 313.328 170.176ZM327.767 165.847L336.441 144.83L348.293 149.721L338.926 172.417L327.767 165.847Z" fill="white"/>
</g>
<g opacity="0.2" filter="url(#filter2_ddd_698_2492)">
<rect x="1510.37" y="246" width="153" height="153" rx="76.5" transform="rotate(22.4265 1510.37 246)" fill="url(#paint2_linear_698_2492)"/>
<path d="M1543.82 375.665C1539.39 373.836 1535.59 371.458 1532.42 368.531C1529.33 365.572 1526.94 362.214 1525.24 358.458C1523.59 354.724 1522.72 350.779 1522.63 346.624C1522.58 342.491 1523.43 338.32 1525.17 334.111C1526.9 329.902 1529.24 326.348 1532.19 323.449C1535.19 320.572 1538.62 318.401 1542.47 316.936C1546.32 315.472 1550.4 314.818 1554.71 314.975C1559.04 315.079 1563.45 316.056 1567.94 317.907C1572.9 319.956 1577.02 322.622 1580.29 325.904C1583.61 329.208 1585.98 332.993 1587.41 337.26L1575.92 341.495C1574.77 338.526 1573.2 336.04 1571.21 334.037C1569.25 331.98 1566.86 330.367 1564.03 329.199C1561.3 328.076 1558.64 327.477 1556.05 327.404C1553.46 327.331 1551 327.752 1548.69 328.668C1546.43 329.605 1544.39 330.978 1542.58 332.788C1540.83 334.62 1539.4 336.868 1538.3 339.531C1537.22 342.142 1536.66 344.716 1536.61 347.252C1536.62 349.811 1537.08 352.247 1538 354.56C1539 356.841 1540.41 358.859 1542.25 360.615C1544.14 362.393 1546.42 363.833 1549.09 364.934C1551.65 365.992 1554.3 366.617 1557.03 366.809C1559.84 366.971 1562.8 366.539 1565.91 365.516L1569.42 377.906C1565.43 378.941 1561.15 379.234 1556.59 378.785C1552.08 378.357 1547.82 377.318 1543.82 375.665ZM1558.26 371.336L1566.93 350.319L1578.78 355.211L1569.42 377.906L1558.26 371.336Z" fill="white"/>
</g>
<g opacity="0.2" filter="url(#filter3_ddd_698_2492)">
<rect x="606.664" y="209" width="153" height="153" rx="76.5" transform="rotate(12.3272 606.664 209)" fill="url(#paint3_linear_698_2492)"/>
<path d="M662.331 330.791C657.648 329.768 653.492 328.093 649.862 325.766C646.301 323.395 643.355 320.509 641.024 317.109C638.749 313.721 637.2 309.99 636.375 305.916C635.608 301.855 635.71 297.6 636.682 293.152C637.654 288.704 639.336 284.794 641.728 281.423C644.176 278.065 647.169 275.327 650.706 273.209C654.243 271.091 658.146 269.732 662.416 269.131C666.698 268.474 671.208 268.663 675.948 269.699C681.196 270.846 685.716 272.748 689.51 275.406C693.36 278.076 696.361 281.387 698.513 285.338L687.939 291.522C686.287 288.801 684.309 286.629 682.003 285.004C679.71 283.323 677.069 282.156 674.078 281.502C671.201 280.873 668.478 280.75 665.912 281.133C663.345 281.516 661.003 282.361 658.884 283.668C656.822 284.988 655.06 286.697 653.596 288.796C652.189 290.907 651.177 293.37 650.562 296.185C649.959 298.944 649.857 301.577 650.255 304.083C650.71 306.601 651.593 308.917 652.904 311.033C654.284 313.104 656.032 314.843 658.149 316.25C660.322 317.668 662.819 318.686 665.64 319.303C668.348 319.894 671.064 320.046 673.788 319.756C676.581 319.422 679.417 318.479 682.299 316.926L687.926 328.509C684.181 330.227 680.022 331.265 675.451 331.623C670.936 331.993 666.563 331.716 662.331 330.791ZM675.787 323.998L680.642 301.785L693.168 304.523L687.926 328.509L675.787 323.998Z" fill="white"/>
</g>
</g>
<defs>
<filter id="filter0_ddd_698_2492" x="-28" y="313" width="217.08" height="217.08" filterUnits="userSpaceOnUse" color-interpolation-filters="sRGB">
<feFlood flood-opacity="0" result="BackgroundImageFix"/>
<feColorMatrix in="SourceAlpha" type="matrix" values="0 0 0 0 0 0 0 0 0 0 0 0 0 0 0 0 0 0 127 0" result="hardAlpha"/>
<feOffset dy="1"/>
<feGaussianBlur stdDeviation="1.5"/>
<feColorMatrix type="matrix" values="0 0 0 0 0 0 0 0 0 0 0 0 0 0 0 0 0 0 0.2 0"/>
<feBlend mode="normal" in2="BackgroundImageFix" result="effect1_dropShadow_698_2492"/>
<feColorMatrix in="SourceAlpha" type="matrix" values="0 0 0 0 0 0 0 0 0 0 0 0 0 0 0 0 0 0 127 0" result="hardAlpha"/>
<feOffset dy="2"/>
<feGaussianBlur stdDeviation="0.5"/>
<feColorMatrix type="matrix" values="0 0 0 0 0 0 0 0 0 0 0 0 0 0 0 0 0 0 0.12 0"/>
<feBlend mode="normal" in2="effect1_dropShadow_698_2492" result="effect2_dropShadow_698_2492"/>
<feColorMatrix in="SourceAlpha" type="matrix" values="0 0 0 0 0 0 0 0 0 0 0 0 0 0 0 0 0 0 127 0" result="hardAlpha"/>
<feOffset dy="1"/>
<feGaussianBlur stdDeviation="0.5"/>
<feColorMatrix type="matrix" values="0 0 0 0 0 0 0 0 0 0 0 0 0 0 0 0 0 0 0.14 0"/>
<feBlend mode="normal" in2="effect2_dropShadow_698_2492" result="effect3_dropShadow_698_2492"/>
<feBlend mode="normal" in="SourceGraphic" in2="effect3_dropShadow_698_2492" result="shape"/>
</filter>
<filter id="filter1_ddd_698_2492" x="218.51" y="38.5107" width="205.797" height="205.798" filterUnits="userSpaceOnUse" color-interpolation-filters="sRGB">
<feFlood flood-opacity="0" result="BackgroundImageFix"/>
<feColorMatrix in="SourceAlpha" type="matrix" values="0 0 0 0 0 0 0 0 0 0 0 0 0 0 0 0 0 0 127 0" result="hardAlpha"/>
<feOffset dy="1"/>
<feGaussianBlur stdDeviation="1.5"/>
<feColorMatrix type="matrix" values="0 0 0 0 0 0 0 0 0 0 0 0 0 0 0 0 0 0 0.2 0"/>
<feBlend mode="normal" in2="BackgroundImageFix" result="effect1_dropShadow_698_2492"/>
<feColorMatrix in="SourceAlpha" type="matrix" values="0 0 0 0 0 0 0 0 0 0 0 0 0 0 0 0 0 0 127 0" result="hardAlpha"/>
<feOffset dy="2"/>
<feGaussianBlur stdDeviation="0.5"/>
<feColorMatrix type="matrix" values="0 0 0 0 0 0 0 0 0 0 0 0 0 0 0 0 0 0 0.12 0"/>
<feBlend mode="normal" in2="effect1_dropShadow_698_2492" result="effect2_dropShadow_698_2492"/>
<feColorMatrix in="SourceAlpha" type="matrix" values="0 0 0 0 0 0 0 0 0 0 0 0 0 0 0 0 0 0 127 0" result="hardAlpha"/>
<feOffset dy="1"/>
<feGaussianBlur stdDeviation="0.5"/>
<feColorMatrix type="matrix" values="0 0 0 0 0 0 0 0 0 0 0 0 0 0 0 0 0 0 0.14 0"/>
<feBlend mode="normal" in2="effect2_dropShadow_698_2492" result="effect3_dropShadow_698_2492"/>
<feBlend mode="normal" in="SourceGraphic" in2="effect3_dropShadow_698_2492" result="shape"/>
</filter>
<filter id="filter2_ddd_698_2492" x="1449" y="244" width="205.797" height="205.798" filterUnits="userSpaceOnUse" color-interpolation-filters="sRGB">
<feFlood flood-opacity="0" result="BackgroundImageFix"/>
<feColorMatrix in="SourceAlpha" type="matrix" values="0 0 0 0 0 0 0 0 0 0 0 0 0 0 0 0 0 0 127 0" result="hardAlpha"/>
<feOffset dy="1"/>
<feGaussianBlur stdDeviation="1.5"/>
<feColorMatrix type="matrix" values="0 0 0 0 0 0 0 0 0 0 0 0 0 0 0 0 0 0 0.2 0"/>
<feBlend mode="normal" in2="BackgroundImageFix" result="effect1_dropShadow_698_2492"/>
<feColorMatrix in="SourceAlpha" type="matrix" values="0 0 0 0 0 0 0 0 0 0 0 0 0 0 0 0 0 0 127 0" result="hardAlpha"/>
<feOffset dy="2"/>
<feGaussianBlur stdDeviation="0.5"/>
<feColorMatrix type="matrix" values="0 0 0 0 0 0 0 0 0 0 0 0 0 0 0 0 0 0 0.12 0"/>
<feBlend mode="normal" in2="effect1_dropShadow_698_2492" result="effect2_dropShadow_698_2492"/>
<feColorMatrix in="SourceAlpha" type="matrix" values="0 0 0 0 0 0 0 0 0 0 0 0 0 0 0 0 0 0 127 0" result="hardAlpha"/>
<feOffset dy="1"/>
<feGaussianBlur stdDeviation="0.5"/>
<feColorMatrix type="matrix" values="0 0 0 0 0 0 0 0 0 0 0 0 0 0 0 0 0 0 0.14 0"/>
<feBlend mode="normal" in2="effect2_dropShadow_698_2492" result="effect3_dropShadow_698_2492"/>
<feBlend mode="normal" in="SourceGraphic" in2="effect3_dropShadow_698_2492" result="shape"/>
</filter>
<filter id="filter3_ddd_698_2492" x="571" y="207" width="188.137" height="188.137" filterUnits="userSpaceOnUse" color-interpolation-filters="sRGB">
<feFlood flood-opacity="0" result="BackgroundImageFix"/>
<feColorMatrix in="SourceAlpha" type="matrix" values="0 0 0 0 0 0 0 0 0 0 0 0 0 0 0 0 0 0 127 0" result="hardAlpha"/>
<feOffset dy="1"/>
<feGaussianBlur stdDeviation="1.5"/>
<feColorMatrix type="matrix" values="0 0 0 0 0 0 0 0 0 0 0 0 0 0 0 0 0 0 0.2 0"/>
<feBlend mode="normal" in2="BackgroundImageFix" result="effect1_dropShadow_698_2492"/>
<feColorMatrix in="SourceAlpha" type="matrix" values="0 0 0 0 0 0 0 0 0 0 0 0 0 0 0 0 0 0 127 0" result="hardAlpha"/>
<feOffset dy="2"/>
<feGaussianBlur stdDeviation="0.5"/>
<feColorMatrix type="matrix" values="0 0 0 0 0 0 0 0 0 0 0 0 0 0 0 0 0 0 0.12 0"/>
<feBlend mode="normal" in2="effect1_dropShadow_698_2492" result="effect2_dropShadow_698_2492"/>
<feColorMatrix in="SourceAlpha" type="matrix" values="0 0 0 0 0 0 0 0 0 0 0 0 0 0 0 0 0 0 127 0" result="hardAlpha"/>
<feOffset dy="1"/>
<feGaussianBlur stdDeviation="0.5"/>
<feColorMatrix type="matrix" values="0 0 0 0 0 0 0 0 0 0 0 0 0 0 0 0 0 0 0.14 0"/>
<feBlend mode="normal" in2="effect2_dropShadow_698_2492" result="effect3_dropShadow_698_2492"/>
<feBlend mode="normal" in="SourceGraphic" in2="effect3_dropShadow_698_2492" result="shape"/>
</filter>
<linearGradient id="paint0_linear_698_2492" x1="62.9605" y1="651.874" x2="66.9205" y2="253.234" gradientUnits="userSpaceOnUse">
<stop stop-color="#10BB76"/>
<stop offset="0.517233" stop-color="#0C9463" stop-opacity="0.826585"/>
<stop offset="1" stop-color="#001726" stop-opacity="0.28"/>
</linearGradient>
<linearGradient id="paint1_linear_698_2492" x1="367.839" y1="295.632" x2="371.799" y2="-103.008" gradientUnits="userSpaceOnUse">
<stop stop-color="#10BB76"/>
<stop offset="0.517233" stop-color="#0C9463" stop-opacity="0.826585"/>
<stop offset="1" stop-color="#001726" stop-opacity="0.28"/>
</linearGradient>
<linearGradient id="paint2_linear_698_2492" x1="1598.33" y1="501.121" x2="1602.29" y2="102.481" gradientUnits="userSpaceOnUse">
<stop stop-color="#10BB76"/>
<stop offset="0.517233" stop-color="#0C9463" stop-opacity="0.826585"/>
<stop offset="1" stop-color="#001726" stop-opacity="0.28"/>
</linearGradient>
<linearGradient id="paint3_linear_698_2492" x1="694.625" y1="464.121" x2="698.585" y2="65.4809" gradientUnits="userSpaceOnUse">
<stop stop-color="#10BB76"/>
<stop offset="0.517233" stop-color="#0C9463" stop-opacity="0.826585"/>
<stop offset="1" stop-color="#001726" stop-opacity="0.28"/>
</linearGradient>
<clipPath id="clip0_698_2492">
<rect width="1596" height="366" rx="20" fill="white"/>
</clipPath>
</defs>
</svg>
