<svg width="222" height="52" viewBox="0 0 222 52" fill="none" xmlns="http://www.w3.org/2000/svg">
<path d="M37.9941 42H50.9119L18.912 10H5.99414L37.9941 42Z" fill="#000E18"/>
<path d="M25.5479 10L56.3952 40.8474V10H48.0474V19.7391L38.3082 10L25.5479 10Z" fill="#000E18"/>
<path d="M0.585938 11.0713V41.9999H8.93376V32.2607L18.6728 41.9999H31.5146L0.585938 11.0713Z" fill="#000E18"/>
<path d="M80.3635 33.532H71.9795L70.6355 37.5H64.9075L73.0355 15.036H79.3715L87.4995 37.5H81.7075L80.3635 33.532ZM78.9555 29.308L76.1715 21.084L73.4195 29.308H78.9555ZM95.4453 22.62C96.0853 21.6387 96.8853 20.8707 97.8453 20.316C98.8053 19.74 99.8719 19.452 101.045 19.452V25.244H99.5413C98.1759 25.244 97.1519 25.5427 96.4693 26.14C95.7866 26.716 95.4453 27.74 95.4453 29.212V37.5H89.9733V19.644H95.4453V22.62ZM113.613 32.86V37.5H110.829C108.845 37.5 107.298 37.02 106.189 36.06C105.079 35.0787 104.525 33.4893 104.525 31.292V24.188H102.349V19.644H104.525V15.292H109.997V19.644H113.581V24.188H109.997V31.356C109.997 31.8893 110.125 32.2733 110.381 32.508C110.637 32.7427 111.063 32.86 111.661 32.86H113.613ZM137.749 15.036L129.781 37.5H122.933L114.965 15.036H120.789L126.357 31.996L131.957 15.036H137.749ZM156.868 28.284C156.868 28.796 156.836 29.3293 156.772 29.884H144.388C144.473 30.9933 144.825 31.8467 145.444 32.444C146.084 33.02 146.862 33.308 147.78 33.308C149.145 33.308 150.094 32.732 150.628 31.58H156.452C156.153 32.7533 155.609 33.8093 154.82 34.748C154.052 35.6867 153.081 36.4227 151.908 36.956C150.734 37.4893 149.422 37.756 147.972 37.756C146.222 37.756 144.665 37.3827 143.3 36.636C141.934 35.8893 140.868 34.8227 140.1 33.436C139.332 32.0493 138.948 30.428 138.948 28.572C138.948 26.716 139.321 25.0947 140.068 23.708C140.836 22.3213 141.902 21.2547 143.268 20.508C144.633 19.7613 146.201 19.388 147.972 19.388C149.7 19.388 151.236 19.7507 152.58 20.476C153.924 21.2013 154.969 22.236 155.716 23.58C156.484 24.924 156.868 26.492 156.868 28.284ZM151.268 26.844C151.268 25.9053 150.948 25.1587 150.308 24.604C149.668 24.0493 148.868 23.772 147.908 23.772C146.99 23.772 146.212 24.0387 145.572 24.572C144.953 25.1053 144.569 25.8627 144.42 26.844H151.268ZM170.635 19.452C172.725 19.452 174.389 20.1347 175.627 21.5C176.885 22.844 177.515 24.7 177.515 27.068V37.5H172.075V27.804C172.075 26.6093 171.765 25.6813 171.147 25.02C170.528 24.3587 169.696 24.028 168.651 24.028C167.605 24.028 166.773 24.3587 166.155 25.02C165.536 25.6813 165.227 26.6093 165.227 27.804V37.5H159.755V19.644H165.227V22.012C165.781 21.2227 166.528 20.604 167.467 20.156C168.405 19.6867 169.461 19.452 170.635 19.452ZM198.949 19.644V37.5H193.477V35.068C192.922 35.8573 192.165 36.4973 191.205 36.988C190.266 37.4573 189.221 37.692 188.069 37.692C186.704 37.692 185.498 37.3933 184.453 36.796C183.408 36.1773 182.597 35.292 182.021 34.14C181.445 32.988 181.157 31.6333 181.157 30.076V19.644H186.597V29.34C186.597 30.5347 186.906 31.4627 187.525 32.124C188.144 32.7853 188.976 33.116 190.021 33.116C191.088 33.116 191.93 32.7853 192.549 32.124C193.168 31.4627 193.477 30.5347 193.477 29.34V19.644H198.949ZM219.712 28.284C219.712 28.796 219.68 29.3293 219.616 29.884H207.232C207.317 30.9933 207.669 31.8467 208.288 32.444C208.928 33.02 209.706 33.308 210.624 33.308C211.989 33.308 212.938 32.732 213.472 31.58H219.296C218.997 32.7533 218.453 33.8093 217.664 34.748C216.896 35.6867 215.925 36.4227 214.752 36.956C213.578 37.4893 212.266 37.756 210.816 37.756C209.066 37.756 207.509 37.3827 206.144 36.636C204.778 35.8893 203.712 34.8227 202.944 33.436C202.176 32.0493 201.792 30.428 201.792 28.572C201.792 26.716 202.165 25.0947 202.912 23.708C203.68 22.3213 204.746 21.2547 206.112 20.508C207.477 19.7613 209.045 19.388 210.816 19.388C212.544 19.388 214.08 19.7507 215.424 20.476C216.768 21.2013 217.813 22.236 218.56 23.58C219.328 24.924 219.712 26.492 219.712 28.284ZM214.112 26.844C214.112 25.9053 213.792 25.1587 213.152 24.604C212.512 24.0493 211.712 23.772 210.752 23.772C209.834 23.772 209.056 24.0387 208.416 24.572C207.797 25.1053 207.413 25.8627 207.264 26.844H214.112Z" fill="#000E18"/>
</svg>
