<svg width="84" height="25" viewBox="0 0 84 25" fill="none" xmlns="http://www.w3.org/2000/svg">
<path d="M10.4349 19.9779C8.92342 19.9779 7.53027 19.7388 6.2555 19.2605C4.99894 18.7638 3.89717 18.0648 2.95019 17.1634C2.02143 16.262 1.29299 15.2042 0.764864 13.9901C0.254955 12.7759 0 11.4422 0 9.98896C0 8.53569 0.254955 7.20199 0.764864 5.98786C1.29299 4.77373 2.03053 3.71597 2.97751 2.81457C3.92448 1.91317 5.03536 1.22332 6.31013 0.745032C7.58491 0.248344 8.98716 0 10.5169 0C12.2105 0 13.7311 0.285136 15.0788 0.855407C16.4446 1.42568 17.5919 2.25349 18.5206 3.33885L15.6797 5.98786C14.9877 5.25202 14.2319 4.70934 13.4124 4.35982C12.5929 3.99191 11.7006 3.80795 10.7354 3.80795C9.80666 3.80795 8.95984 3.95511 8.19498 4.24945C7.43011 4.54378 6.76541 4.96689 6.20086 5.51876C5.65453 6.07064 5.22657 6.72369 4.91699 7.47792C4.62561 8.23216 4.47992 9.06917 4.47992 9.98896C4.47992 10.8904 4.62561 11.7182 4.91699 12.4724C5.22657 13.2266 5.65453 13.8889 6.20086 14.4592C6.76541 15.011 7.42101 15.4341 8.16766 15.7285C8.93252 16.0228 9.77023 16.17 10.6808 16.17C11.5549 16.17 12.4017 16.032 13.2212 15.7561C14.0589 15.4617 14.8693 14.9742 15.6524 14.2936L18.1655 17.5221C17.1275 18.3131 15.9165 18.9202 14.5324 19.3433C13.1666 19.7664 11.8008 19.9779 10.4349 19.9779ZM14.1227 16.9426V9.68543H18.1655V17.5221L14.1227 16.9426Z" fill="#10BB76"/>
<path d="M21.9758 19.6468V4.80132H26.0459V8.99558L25.4723 7.78146C25.9094 6.73289 26.6105 5.94187 27.5757 5.40839C28.5409 4.85651 29.7155 4.58057 31.0995 4.58057V8.55408C30.9174 8.53569 30.7535 8.52649 30.6078 8.52649C30.4621 8.50809 30.3073 8.4989 30.1434 8.4989C28.9779 8.4989 28.0309 8.83922 27.3025 9.51987C26.5923 10.1821 26.2372 11.2215 26.2372 12.638V19.6468H21.9758Z" fill="#10BB76"/>
<path d="M40.8202 19.8675C39.1447 19.8675 37.6696 19.5364 36.3949 18.8742C35.1383 18.2119 34.164 17.3105 33.472 16.17C32.78 15.011 32.434 13.6957 32.434 12.2241C32.434 10.734 32.7709 9.41869 33.4447 8.27814C34.1367 7.1192 35.0746 6.21781 36.2583 5.57395C37.442 4.9117 38.7805 4.58057 40.2738 4.58057C41.7125 4.58057 43.0055 4.8933 44.1528 5.51876C45.3183 6.12583 46.238 7.00883 46.9118 8.16777C47.5856 9.30831 47.9225 10.6788 47.9225 12.2792C47.9225 12.4448 47.9134 12.638 47.8952 12.8587C47.8769 13.0611 47.8587 13.2542 47.8405 13.4382H35.9032V10.9272H45.6006L43.9616 11.6722C43.9616 10.8996 43.8068 10.2281 43.4972 9.65784C43.1876 9.08756 42.7596 8.64606 42.2133 8.33333C41.667 8.00221 41.0296 7.83664 40.3011 7.83664C39.5727 7.83664 38.9262 8.00221 38.3617 8.33333C37.8153 8.64606 37.3874 9.09676 37.0778 9.68543C36.7682 10.2557 36.6134 10.9363 36.6134 11.7274V12.3896C36.6134 13.199 36.7864 13.9165 37.1324 14.5419C37.4966 15.149 37.9974 15.6181 38.6348 15.9492C39.2904 16.262 40.0553 16.4183 40.9294 16.4183C41.7125 16.4183 42.3954 16.2987 42.9782 16.0596C43.5791 15.8205 44.1255 15.4617 44.6172 14.9834L46.8844 17.4669C46.2106 18.2395 45.3638 18.8374 44.344 19.2605C43.3242 19.6652 42.1496 19.8675 40.8202 19.8675Z" fill="#10BB76"/>
<path d="M58.0531 19.8675C56.3777 19.8675 54.9026 19.5364 53.6278 18.8742C52.3712 18.2119 51.3969 17.3105 50.7049 16.17C50.0129 15.011 49.6669 13.6957 49.6669 12.2241C49.6669 10.734 50.0038 9.41869 50.6776 8.27814C51.3696 7.1192 52.3075 6.21781 53.4912 5.57395C54.6749 4.9117 56.0134 4.58057 57.5068 4.58057C58.9454 4.58057 60.2384 4.8933 61.3857 5.51876C62.5512 6.12583 63.4709 7.00883 64.1447 8.16777C64.8185 9.30831 65.1554 10.6788 65.1554 12.2792C65.1554 12.4448 65.1463 12.638 65.1281 12.8587C65.1099 13.0611 65.0917 13.2542 65.0734 13.4382H53.1361V10.9272H62.8335L61.1945 11.6722C61.1945 10.8996 61.0397 10.2281 60.7301 9.65784C60.4205 9.08756 59.9926 8.64606 59.4462 8.33333C58.8999 8.00221 58.2625 7.83664 57.5341 7.83664C56.8056 7.83664 56.1591 8.00221 55.5946 8.33333C55.0483 8.64606 54.6203 9.09676 54.3107 9.68543C54.0011 10.2557 53.8463 10.9363 53.8463 11.7274V12.3896C53.8463 13.199 54.0193 13.9165 54.3653 14.5419C54.7296 15.149 55.2304 15.6181 55.8678 15.9492C56.5234 16.262 57.2882 16.4183 58.1623 16.4183C58.9454 16.4183 59.6283 16.2987 60.2111 16.0596C60.8121 15.8205 61.3584 15.4617 61.8501 14.9834L64.1174 17.4669C63.4436 18.2395 62.5967 18.8374 61.5769 19.2605C60.5571 19.6652 59.3825 19.8675 58.0531 19.8675Z" fill="#10BB76"/>
<path d="M76.6792 19.8675C75.4408 19.8675 74.3572 19.5916 73.4285 19.0397C72.4997 18.4879 71.7713 17.6508 71.2432 16.5287C70.7332 15.3882 70.4783 13.9533 70.4783 12.2241C70.4783 10.4765 70.7241 9.04157 71.2158 7.91943C71.7075 6.79728 72.4178 5.96026 73.3465 5.40839C74.2753 4.85651 75.3862 4.58057 76.6792 4.58057C78.0632 4.58057 79.3015 4.9025 80.3942 5.54636C81.5051 6.17182 82.3792 7.05482 83.0166 8.19536C83.6722 9.33591 84 10.6788 84 12.2241C84 13.7877 83.6722 15.1398 83.0166 16.2804C82.3792 17.4209 81.5051 18.3039 80.3942 18.9294C79.3015 19.5548 78.0632 19.8675 76.6792 19.8675ZM67.9925 25V4.80132H72.0627V7.83664L71.9807 12.2517L72.2539 16.6391V25H67.9925ZM75.9416 16.3355C76.6518 16.3355 77.2801 16.17 77.8265 15.8389C78.391 15.5077 78.8372 15.0386 79.165 14.4316C79.511 13.8061 79.684 13.0703 79.684 12.2241C79.684 11.3595 79.511 10.6236 79.165 10.0166C78.8372 9.40949 78.391 8.9404 77.8265 8.60927C77.2801 8.27815 76.6518 8.11258 75.9416 8.11258C75.2314 8.11258 74.594 8.27815 74.0294 8.60927C73.4649 8.9404 73.0187 9.40949 72.6909 10.0166C72.3631 10.6236 72.1992 11.3595 72.1992 12.2241C72.1992 13.0703 72.3631 13.8061 72.6909 14.4316C73.0187 15.0386 73.4649 15.5077 74.0294 15.8389C74.594 16.17 75.2314 16.3355 75.9416 16.3355Z" fill="#10BB76"/>
</svg>
