<svg width="140" height="48" viewBox="0 0 140 48" fill="none" xmlns="http://www.w3.org/2000/svg">
<g filter="url(#filter0_ddd_11840_20480)">
<rect y="1.27271" width="45.4546" height="45.4546" rx="22.7273" fill="url(#paint0_linear_11840_20480)"/>
<path d="M23.8826 33.0904C22.4585 33.0904 21.1458 32.8678 19.9447 32.4226C18.7608 31.9603 17.7227 31.3097 16.8305 30.4707C15.9554 29.6317 15.269 28.6471 14.7714 27.517C14.291 26.387 14.0508 25.1456 14.0508 23.7929C14.0508 22.4402 14.291 21.1988 14.7714 20.0687C15.269 18.9387 15.964 17.9541 16.8562 17.1151C17.7484 16.2761 18.7951 15.634 19.9962 15.1888C21.1973 14.7265 22.5185 14.4954 23.9598 14.4954C25.5556 14.4954 26.9883 14.7608 28.258 15.2916C29.5449 15.8224 30.6259 16.5929 31.501 17.6031L28.8243 20.0687C28.1722 19.3838 27.4602 18.8787 26.688 18.5534C25.9159 18.2109 25.0751 18.0397 24.1657 18.0397C23.2906 18.0397 22.4928 18.1767 21.7721 18.4507C21.0515 18.7246 20.4252 19.1184 19.8933 19.6321C19.3785 20.1458 18.9753 20.7536 18.6836 21.4557C18.409 22.1577 18.2718 22.9368 18.2718 23.7929C18.2718 24.6319 18.409 25.4024 18.6836 26.1044C18.9753 26.8065 19.3785 27.4229 19.8933 27.9537C20.4252 28.4673 21.0429 28.8612 21.7464 29.1351C22.467 29.4091 23.2563 29.5461 24.1142 29.5461C24.9379 29.5461 25.7357 29.4176 26.5079 29.1608C27.2972 28.8868 28.0607 28.4331 28.7985 27.7996L31.1664 30.8046C30.1884 31.5408 29.0473 32.1059 27.7433 32.4997C26.4564 32.8935 25.1695 33.0904 23.8826 33.0904ZM27.3572 30.2652V23.5104H31.1664V30.8046L27.3572 30.2652Z" fill="white"/>
</g>
<path d="M65.8881 31.4779C64.3765 31.4779 62.9834 31.2388 61.7086 30.7605C60.4521 30.2638 59.3503 29.5648 58.4033 28.6634C57.4746 27.762 56.7461 26.7042 56.218 25.4901C55.7081 24.2759 55.4531 22.9422 55.4531 21.489C55.4531 20.0357 55.7081 18.702 56.218 17.4879C56.7461 16.2737 57.4837 15.216 58.4306 14.3146C59.3776 13.4132 60.4885 12.7233 61.7633 12.245C63.038 11.7483 64.4403 11.5 65.97 11.5C67.6636 11.5 69.1843 11.7851 70.5319 12.3554C71.8977 12.9257 73.045 13.7535 73.9738 14.8389L71.1328 17.4879C70.4408 16.752 69.6851 16.2093 68.8656 15.8598C68.0461 15.4919 67.1537 15.3079 66.1885 15.3079C65.2598 15.3079 64.413 15.4551 63.6481 15.7494C62.8832 16.0438 62.2185 16.4669 61.654 17.0188C61.1077 17.5706 60.6797 18.2237 60.3701 18.9779C60.0787 19.7322 59.933 20.5692 59.933 21.489C59.933 22.3904 60.0787 23.2182 60.3701 23.9724C60.6797 24.7266 61.1077 25.3889 61.654 25.9592C62.2185 26.511 62.8741 26.9341 63.6208 27.2285C64.3856 27.5228 65.2234 27.67 66.1339 27.67C67.008 27.67 67.8549 27.532 68.6744 27.2561C69.5121 26.9617 70.3225 26.4742 71.1055 25.7936L73.6187 29.0221C72.5806 29.8131 71.3696 30.4202 69.9856 30.8433C68.6197 31.2664 67.2539 31.4779 65.8881 31.4779ZM69.5758 28.4426V21.1854H73.6187V29.0221L69.5758 28.4426Z" fill="#10BB76"/>
<path d="M77.4289 31.1468V16.3013H81.4991V20.4956L80.9254 19.2815C81.3625 18.2329 82.0636 17.4419 83.0288 16.9084C83.994 16.3565 85.1686 16.0806 86.5526 16.0806V20.0541C86.3705 20.0357 86.2066 20.0265 86.0609 20.0265C85.9152 20.0081 85.7605 19.9989 85.5966 19.9989C84.431 19.9989 83.4841 20.3392 82.7556 21.0199C82.0454 21.6821 81.6903 22.7215 81.6903 24.138V31.1468H77.4289Z" fill="#10BB76"/>
<path d="M96.2733 31.3675C94.5979 31.3675 93.1228 31.0364 91.848 30.3742C90.5914 29.7119 89.6171 28.8105 88.9251 27.67C88.2331 26.511 87.8871 25.1957 87.8871 23.7241C87.8871 22.234 88.224 20.9187 88.8978 19.7781C89.5898 18.6192 90.5277 17.7178 91.7114 17.0739C92.8951 16.4117 94.2336 16.0806 95.727 16.0806C97.1656 16.0806 98.4586 16.3933 99.6059 17.0188C100.771 17.6258 101.691 18.5088 102.365 19.6678C103.039 20.8083 103.376 22.1788 103.376 23.7792C103.376 23.9448 103.366 24.138 103.348 24.3587C103.33 24.5611 103.312 24.7542 103.294 24.9382H91.3563V22.4272H101.054L99.4147 23.1722C99.4147 22.3996 99.2599 21.7281 98.9503 21.1578C98.6407 20.5876 98.2128 20.1461 97.6664 19.8333C97.1201 19.5022 96.4827 19.3366 95.7543 19.3366C95.0258 19.3366 94.3793 19.5022 93.8148 19.8333C93.2685 20.1461 92.8405 20.5968 92.5309 21.1854C92.2213 21.7557 92.0665 22.4363 92.0665 23.2274V23.8896C92.0665 24.699 92.2395 25.4165 92.5855 26.0419C92.9498 26.649 93.4506 27.1181 94.088 27.4492C94.7436 27.762 95.5084 27.9183 96.3825 27.9183C97.1656 27.9183 97.8485 27.7987 98.4313 27.5596C99.0323 27.3205 99.5786 26.9617 100.07 26.4834L102.338 28.9669C101.664 29.7395 100.817 30.3374 99.7971 30.7605C98.7773 31.1652 97.6027 31.3675 96.2733 31.3675Z" fill="#10BB76"/>
<path d="M113.506 31.3675C111.831 31.3675 110.356 31.0364 109.081 30.3742C107.824 29.7119 106.85 28.8105 106.158 27.67C105.466 26.511 105.12 25.1957 105.12 23.7241C105.12 22.234 105.457 20.9187 106.131 19.7781C106.823 18.6192 107.761 17.7178 108.944 17.0739C110.128 16.4117 111.467 16.0806 112.96 16.0806C114.399 16.0806 115.692 16.3933 116.839 17.0188C118.004 17.6258 118.924 18.5088 119.598 19.6678C120.272 20.8083 120.609 22.1788 120.609 23.7792C120.609 23.9448 120.599 24.138 120.581 24.3587C120.563 24.5611 120.545 24.7542 120.527 24.9382H108.589V22.4272H118.287L116.648 23.1722C116.648 22.3996 116.493 21.7281 116.183 21.1578C115.874 20.5876 115.446 20.1461 114.899 19.8333C114.353 19.5022 113.716 19.3366 112.987 19.3366C112.259 19.3366 111.612 19.5022 111.048 19.8333C110.501 20.1461 110.073 20.5968 109.764 21.1854C109.454 21.7557 109.299 22.4363 109.299 23.2274V23.8896C109.299 24.699 109.472 25.4165 109.818 26.0419C110.183 26.649 110.683 27.1181 111.321 27.4492C111.976 27.762 112.741 27.9183 113.615 27.9183C114.399 27.9183 115.081 27.7987 115.664 27.5596C116.265 27.3205 116.812 26.9617 117.303 26.4834L119.57 28.9669C118.897 29.7395 118.05 30.3374 117.03 30.7605C116.01 31.1652 114.836 31.3675 113.506 31.3675Z" fill="#10BB76"/>
<path d="M132.132 31.3675C130.894 31.3675 129.81 31.0916 128.882 30.5397C127.953 29.9879 127.224 29.1508 126.696 28.0287C126.186 26.8882 125.931 25.4533 125.931 23.7241C125.931 21.9765 126.177 20.5416 126.669 19.4194C127.161 18.2973 127.871 17.4603 128.8 16.9084C129.728 16.3565 130.839 16.0806 132.132 16.0806C133.516 16.0806 134.755 16.4025 135.847 17.0464C136.958 17.6718 137.832 18.5548 138.47 19.6954C139.125 20.8359 139.453 22.1788 139.453 23.7241C139.453 25.2877 139.125 26.6398 138.47 27.7804C137.832 28.9209 136.958 29.8039 135.847 30.4294C134.755 31.0548 133.516 31.3675 132.132 31.3675ZM123.446 36.5V16.3013H127.516V19.3366L127.434 23.7517L127.707 28.1391V36.5H123.446ZM131.395 27.8355C132.105 27.8355 132.733 27.67 133.28 27.3389C133.844 27.0077 134.29 26.5386 134.618 25.9316C134.964 25.3061 135.137 24.5703 135.137 23.7241C135.137 22.8595 134.964 22.1236 134.618 21.5166C134.29 20.9095 133.844 20.4404 133.28 20.1093C132.733 19.7781 132.105 19.6126 131.395 19.6126C130.685 19.6126 130.047 19.7781 129.483 20.1093C128.918 20.4404 128.472 20.9095 128.144 21.5166C127.816 22.1236 127.652 22.8595 127.652 23.7241C127.652 24.5703 127.816 25.3061 128.144 25.9316C128.472 26.5386 128.918 27.0077 129.483 27.3389C130.047 27.67 130.685 27.8355 131.395 27.8355Z" fill="#10BB76"/>
<defs>
<filter id="filter0_ddd_11840_20480" x="-3" y="-0.727295" width="51.4531" height="51.4546" filterUnits="userSpaceOnUse" color-interpolation-filters="sRGB">
<feFlood flood-opacity="0" result="BackgroundImageFix"/>
<feColorMatrix in="SourceAlpha" type="matrix" values="0 0 0 0 0 0 0 0 0 0 0 0 0 0 0 0 0 0 127 0" result="hardAlpha"/>
<feOffset dy="1"/>
<feGaussianBlur stdDeviation="1.5"/>
<feColorMatrix type="matrix" values="0 0 0 0 0 0 0 0 0 0 0 0 0 0 0 0 0 0 0.2 0"/>
<feBlend mode="normal" in2="BackgroundImageFix" result="effect1_dropShadow_11840_20480"/>
<feColorMatrix in="SourceAlpha" type="matrix" values="0 0 0 0 0 0 0 0 0 0 0 0 0 0 0 0 0 0 127 0" result="hardAlpha"/>
<feOffset dy="2"/>
<feGaussianBlur stdDeviation="0.5"/>
<feColorMatrix type="matrix" values="0 0 0 0 0 0 0 0 0 0 0 0 0 0 0 0 0 0 0.12 0"/>
<feBlend mode="normal" in2="effect1_dropShadow_11840_20480" result="effect2_dropShadow_11840_20480"/>
<feColorMatrix in="SourceAlpha" type="matrix" values="0 0 0 0 0 0 0 0 0 0 0 0 0 0 0 0 0 0 127 0" result="hardAlpha"/>
<feOffset dy="1"/>
<feGaussianBlur stdDeviation="0.5"/>
<feColorMatrix type="matrix" values="0 0 0 0 0 0 0 0 0 0 0 0 0 0 0 0 0 0 0.14 0"/>
<feBlend mode="normal" in2="effect2_dropShadow_11840_20480" result="effect3_dropShadow_11840_20480"/>
<feBlend mode="normal" in="SourceGraphic" in2="effect3_dropShadow_11840_20480" result="shape"/>
</filter>
<linearGradient id="paint0_linear_11840_20480" x1="26.1321" y1="77.0662" x2="27.3085" y2="-41.3652" gradientUnits="userSpaceOnUse">
<stop stop-color="#10BB76"/>
<stop offset="0.517233" stop-color="#0C9463" stop-opacity="0.826585"/>
<stop offset="1" stop-color="#001726" stop-opacity="0.28"/>
</linearGradient>
</defs>
</svg>
