<svg width="161" height="53" viewBox="0 0 161 53" fill="none" xmlns="http://www.w3.org/2000/svg">
<g clip-path="url(#clip0_707_2134)">
<g filter="url(#filter0_ddd_707_2134)">
<rect x="1.77344" y="3.77295" width="45.4546" height="45.4546" rx="22.7273" fill="url(#paint0_linear_707_2134)"/>
<path d="M25.656 35.5907C24.2319 35.5907 22.9193 35.3681 21.7182 34.9229C20.5342 34.4606 19.4961 33.8099 18.6039 32.9709C17.7288 32.1319 17.0425 31.1474 16.5449 30.0173C16.0644 28.8872 15.8242 27.6458 15.8242 26.2931C15.8242 24.9405 16.0644 23.6991 16.5449 22.569C17.0425 21.4389 17.7374 20.4544 18.6296 19.6154C19.5219 18.7763 20.5685 18.1343 21.7696 17.6891C22.9707 17.2268 24.2919 16.9956 25.7333 16.9956C27.329 16.9956 28.7617 17.261 30.0315 17.7918C31.3184 18.3226 32.3993 19.0931 33.2744 20.1033L30.5977 22.569C29.9457 21.8841 29.2336 21.379 28.4615 21.0536C27.6893 20.7112 26.8486 20.54 25.9392 20.54C25.0641 20.54 24.2662 20.6769 23.5455 20.9509C22.8249 21.2249 22.1986 21.6187 21.6667 22.1324C21.1519 22.646 20.7487 23.2539 20.457 23.9559C20.1825 24.6579 20.0452 25.437 20.0452 26.2931C20.0452 27.1321 20.1825 27.9027 20.457 28.6047C20.7487 29.3067 21.1519 29.9231 21.6667 30.4539C22.1986 30.9676 22.8163 31.3614 23.5198 31.6354C24.2405 31.9093 25.0298 32.0463 25.8877 32.0463C26.7113 32.0463 27.5092 31.9179 28.2813 31.661C29.0706 31.3871 29.8341 30.9333 30.572 30.2998L32.9398 33.3048C31.9618 34.0411 30.8208 34.6061 29.5167 34.9999C28.2298 35.3938 26.9429 35.5907 25.656 35.5907ZM29.1306 32.7655V26.0106H32.9398V33.3048L29.1306 32.7655Z" fill="white"/>
</g>
<path d="M73.5746 32.852V26.087H78.4586V35.459C75.9176 37.373 72.4196 38.396 69.1196 38.396C61.8596 38.396 56.5136 33.413 56.5136 26.45C56.5136 19.487 61.8596 14.504 69.2186 14.504C73.2776 14.504 76.6436 15.89 78.8876 18.497L75.4556 21.665C73.7726 19.883 71.8256 19.058 69.4826 19.058C64.9946 19.058 61.9256 22.061 61.9256 26.45C61.9256 30.773 64.9946 33.842 69.4166 33.842C70.8686 33.842 72.2216 33.578 73.5746 32.852ZM87.9785 22.589C89.2325 20.873 91.3445 19.982 94.0835 19.982V24.734C93.6545 24.701 93.3245 24.668 92.9285 24.668C90.0905 24.668 88.2095 26.219 88.2095 29.618V38H83.0615V20.246H87.9785V22.589ZM114.374 29.189C114.374 29.585 114.308 30.146 114.275 30.575H100.844C101.339 32.786 103.22 34.139 105.926 34.139C107.807 34.139 109.16 33.578 110.381 32.423L113.12 35.393C111.47 37.274 108.995 38.264 105.794 38.264C99.6564 38.264 95.6634 34.403 95.6634 29.123C95.6634 23.81 99.7224 19.982 105.134 19.982C110.348 19.982 114.374 23.48 114.374 29.189ZM105.167 23.876C102.824 23.876 101.141 25.295 100.778 27.572H109.523C109.16 25.328 107.477 23.876 105.167 23.876ZM135.193 29.189C135.193 29.585 135.127 30.146 135.094 30.575H121.663C122.158 32.786 124.039 34.139 126.745 34.139C128.626 34.139 129.979 33.578 131.2 32.423L133.939 35.393C132.289 37.274 129.814 38.264 126.613 38.264C120.475 38.264 116.482 34.403 116.482 29.123C116.482 23.81 120.541 19.982 125.953 19.982C131.167 19.982 135.193 23.48 135.193 29.189ZM125.986 23.876C123.643 23.876 121.96 25.295 121.597 27.572H130.342C129.979 25.328 128.296 23.876 125.986 23.876ZM149.114 19.982C154.097 19.982 157.958 23.546 157.958 29.123C157.958 34.7 154.097 38.264 149.114 38.264C146.903 38.264 145.088 37.571 143.768 36.119V44.402H138.62V20.246H143.537V22.292C144.824 20.741 146.738 19.982 149.114 19.982ZM148.223 34.04C150.797 34.04 152.744 32.192 152.744 29.123C152.744 26.054 150.797 24.206 148.223 24.206C145.649 24.206 143.702 26.054 143.702 29.123C143.702 32.192 145.649 34.04 148.223 34.04Z" fill="#232D42"/>
</g>
<defs>
<filter id="filter0_ddd_707_2134" x="-1.22656" y="1.77295" width="51.4551" height="51.4546" filterUnits="userSpaceOnUse" color-interpolation-filters="sRGB">
<feFlood flood-opacity="0" result="BackgroundImageFix"/>
<feColorMatrix in="SourceAlpha" type="matrix" values="0 0 0 0 0 0 0 0 0 0 0 0 0 0 0 0 0 0 127 0" result="hardAlpha"/>
<feOffset dy="1"/>
<feGaussianBlur stdDeviation="1.5"/>
<feColorMatrix type="matrix" values="0 0 0 0 0 0 0 0 0 0 0 0 0 0 0 0 0 0 0.2 0"/>
<feBlend mode="normal" in2="BackgroundImageFix" result="effect1_dropShadow_707_2134"/>
<feColorMatrix in="SourceAlpha" type="matrix" values="0 0 0 0 0 0 0 0 0 0 0 0 0 0 0 0 0 0 127 0" result="hardAlpha"/>
<feOffset dy="2"/>
<feGaussianBlur stdDeviation="0.5"/>
<feColorMatrix type="matrix" values="0 0 0 0 0 0 0 0 0 0 0 0 0 0 0 0 0 0 0.12 0"/>
<feBlend mode="normal" in2="effect1_dropShadow_707_2134" result="effect2_dropShadow_707_2134"/>
<feColorMatrix in="SourceAlpha" type="matrix" values="0 0 0 0 0 0 0 0 0 0 0 0 0 0 0 0 0 0 127 0" result="hardAlpha"/>
<feOffset dy="1"/>
<feGaussianBlur stdDeviation="0.5"/>
<feColorMatrix type="matrix" values="0 0 0 0 0 0 0 0 0 0 0 0 0 0 0 0 0 0 0.14 0"/>
<feBlend mode="normal" in2="effect2_dropShadow_707_2134" result="effect3_dropShadow_707_2134"/>
<feBlend mode="normal" in="SourceGraphic" in2="effect3_dropShadow_707_2134" result="shape"/>
</filter>
<linearGradient id="paint0_linear_707_2134" x1="27.9055" y1="79.5665" x2="29.082" y2="-38.8649" gradientUnits="userSpaceOnUse">
<stop stop-color="#10BB76"/>
<stop offset="0.517233" stop-color="#0C9463" stop-opacity="0.826585"/>
<stop offset="1" stop-color="#001726" stop-opacity="0.28"/>
</linearGradient>
<clipPath id="clip0_707_2134">
<rect width="161" height="53" fill="white"/>
</clipPath>
</defs>
</svg>
