<svg width="248" height="52" viewBox="0 0 248 52" fill="none" xmlns="http://www.w3.org/2000/svg">
<path d="M22.681 36.4845L1.2684 21.714C-0.901507 20.2173 -0.163881 17.1009 2.54194 16.368L25.2997 10.1913C25.7818 10.0174 26.2984 9.96089 26.8067 10.0266C27.3149 10.0923 27.8002 10.2783 28.2223 10.5691C28.6442 10.8599 28.9908 11.2472 29.2331 11.6988C29.4754 12.1504 29.6066 12.6533 29.6157 13.1657L28.2669 34.1116C28.107 36.5978 24.8509 37.9812 22.681 36.4845Z" fill="#000E18"/>
<path d="M15.8901 40.1301L3.27525 15.4603C2.98688 14.8959 2.85999 14.2629 2.90856 13.631C2.95712 12.9991 3.17927 12.3928 3.55048 11.8792C3.92171 11.3655 4.42758 10.9643 5.01232 10.7199C5.59706 10.4754 6.23795 10.3972 6.86431 10.4939L30.2428 14.102C30.7809 14.1851 31.2918 14.3948 31.7333 14.7137C32.1747 15.0327 32.5341 15.4519 32.782 15.9369C33.0297 16.4219 33.159 16.9587 33.1589 17.5033C33.1588 18.0479 33.0294 18.5848 32.7815 19.0697L22.0119 40.1313C21.7227 40.6941 21.284 41.1663 20.7439 41.4958C20.2038 41.8255 19.5834 41.9997 18.9506 41.9996C18.3179 41.9995 17.6975 41.825 17.1575 41.4952C16.6176 41.1653 16.1791 40.693 15.8901 40.1301Z" fill="#000E18"/>
<path d="M23.5791 18.7269L19.0903 18L13.5791 19.5701L15.7789 24.0856L20.9301 27.8153C21.0438 27.8966 21.1688 27.959 21.3007 28L23.2573 23.9852L23.5791 18.7269Z" fill="#000E18"/>
<path d="M51.2702 37.724C49.6275 37.724 48.1555 37.4573 46.8542 36.924C45.5529 36.3907 44.5075 35.6013 43.7182 34.556C42.9502 33.5107 42.5449 32.252 42.5022 30.78H48.3262C48.4115 31.612 48.6995 32.252 49.1902 32.7C49.6809 33.1267 50.3209 33.34 51.1102 33.34C51.9209 33.34 52.5609 33.1587 53.0302 32.796C53.4995 32.412 53.7342 31.8893 53.7342 31.228C53.7342 30.6733 53.5422 30.2147 53.1582 29.852C52.7955 29.4893 52.3369 29.1907 51.7822 28.956C51.2489 28.7213 50.4809 28.4547 49.4782 28.156C48.0275 27.708 46.8435 27.26 45.9262 26.812C45.0089 26.364 44.2195 25.7027 43.5582 24.828C42.8969 23.9533 42.5662 22.812 42.5662 21.404C42.5662 19.3133 43.3235 17.6813 44.8382 16.508C46.3529 15.3133 48.3262 14.716 50.7582 14.716C53.2329 14.716 55.2275 15.3133 56.7422 16.508C58.2569 17.6813 59.0675 19.324 59.1742 21.436H53.2542C53.2115 20.7107 52.9449 20.1453 52.4542 19.74C51.9635 19.3133 51.3342 19.1 50.5662 19.1C49.9049 19.1 49.3715 19.2813 48.9662 19.644C48.5609 19.9853 48.3582 20.4867 48.3582 21.148C48.3582 21.8733 48.6995 22.4387 49.3822 22.844C50.0649 23.2493 51.1315 23.6867 52.5822 24.156C54.0329 24.6467 55.2062 25.116 56.1022 25.564C57.0195 26.012 57.8089 26.6627 58.4702 27.516C59.1315 28.3693 59.4622 29.468 59.4622 30.812C59.4622 32.092 59.1315 33.2547 58.4702 34.3C57.8302 35.3453 56.8915 36.1773 55.6542 36.796C54.4169 37.4147 52.9555 37.724 51.2702 37.724ZM85.6137 19.452C87.8324 19.452 89.5924 20.124 90.8937 21.468C92.2164 22.812 92.8777 24.6787 92.8777 27.068V37.5H87.4377V27.804C87.4377 26.652 87.1284 25.7667 86.5097 25.148C85.9124 24.508 85.0804 24.188 84.0137 24.188C82.947 24.188 82.1044 24.508 81.4857 25.148C80.8884 25.7667 80.5897 26.652 80.5897 27.804V37.5H75.1497V27.804C75.1497 26.652 74.8404 25.7667 74.2217 25.148C73.6244 24.508 72.7924 24.188 71.7257 24.188C70.659 24.188 69.8164 24.508 69.1977 25.148C68.6004 25.7667 68.3017 26.652 68.3017 27.804V37.5H62.8297V19.644H68.3017V21.884C68.8564 21.1373 69.5817 20.5507 70.4777 20.124C71.3737 19.676 72.387 19.452 73.5177 19.452C74.8617 19.452 76.0564 19.74 77.1017 20.316C78.1684 20.892 79.0004 21.7133 79.5977 22.78C80.2164 21.7987 81.059 20.9987 82.1257 20.38C83.1924 19.7613 84.355 19.452 85.6137 19.452ZM95.6167 28.54C95.6167 26.7053 95.958 25.0947 96.6407 23.708C97.3447 22.3213 98.294 21.2547 99.4887 20.508C100.683 19.7613 102.017 19.388 103.489 19.388C104.747 19.388 105.846 19.644 106.785 20.156C107.745 20.668 108.481 21.34 108.993 22.172V19.644H114.465V37.5H108.993V34.972C108.459 35.804 107.713 36.476 106.753 36.988C105.814 37.5 104.715 37.756 103.457 37.756C102.006 37.756 100.683 37.3827 99.4887 36.636C98.294 35.868 97.3447 34.7907 96.6407 33.404C95.958 31.996 95.6167 30.3747 95.6167 28.54ZM108.993 28.572C108.993 27.2067 108.609 26.1293 107.841 25.34C107.094 24.5507 106.177 24.156 105.089 24.156C104.001 24.156 103.073 24.5507 102.305 25.34C101.558 26.108 101.185 27.1747 101.185 28.54C101.185 29.9053 101.558 30.9933 102.305 31.804C103.073 32.5933 104.001 32.988 105.089 32.988C106.177 32.988 107.094 32.5933 107.841 31.804C108.609 31.0147 108.993 29.9373 108.993 28.572ZM123.895 22.62C124.535 21.6387 125.335 20.8707 126.295 20.316C127.255 19.74 128.322 19.452 129.495 19.452V25.244H127.991C126.626 25.244 125.602 25.5427 124.919 26.14C124.237 26.716 123.895 27.74 123.895 29.212V37.5H118.423V19.644H123.895V22.62ZM142.063 32.86V37.5H139.279C137.295 37.5 135.748 37.02 134.639 36.06C133.53 35.0787 132.975 33.4893 132.975 31.292V24.188H130.799V19.644H132.975V15.292H138.447V19.644H142.031V24.188H138.447V31.356C138.447 31.8893 138.575 32.2733 138.831 32.508C139.087 32.7427 139.514 32.86 140.111 32.86H142.063ZM159.735 15.036V19.42H150.583V24.156H157.431V28.412H150.583V37.5H145.111V15.036H159.735ZM165.363 17.788C164.403 17.788 163.614 17.5107 162.995 16.956C162.398 16.38 162.099 15.676 162.099 14.844C162.099 13.9907 162.398 13.2867 162.995 12.732C163.614 12.156 164.403 11.868 165.363 11.868C166.302 11.868 167.07 12.156 167.667 12.732C168.286 13.2867 168.595 13.9907 168.595 14.844C168.595 15.676 168.286 16.38 167.667 16.956C167.07 17.5107 166.302 17.788 165.363 17.788ZM168.083 19.644V37.5H162.611V19.644H168.083ZM182.928 19.452C185.019 19.452 186.683 20.1347 187.92 21.5C189.179 22.844 189.808 24.7 189.808 27.068V37.5H184.368V27.804C184.368 26.6093 184.059 25.6813 183.44 25.02C182.822 24.3587 181.99 24.028 180.944 24.028C179.899 24.028 179.067 24.3587 178.448 25.02C177.83 25.6813 177.52 26.6093 177.52 27.804V37.5H172.048V19.644H177.52V22.012C178.075 21.2227 178.822 20.604 179.76 20.156C180.699 19.6867 181.755 19.452 182.928 19.452ZM192.523 28.54C192.523 26.7053 192.864 25.0947 193.547 23.708C194.251 22.3213 195.2 21.2547 196.395 20.508C197.59 19.7613 198.923 19.388 200.395 19.388C201.568 19.388 202.635 19.6333 203.595 20.124C204.576 20.6147 205.344 21.276 205.899 22.108V13.82H211.371V37.5H205.899V34.94C205.387 35.7933 204.651 36.476 203.691 36.988C202.752 37.5 201.654 37.756 200.395 37.756C198.923 37.756 197.59 37.3827 196.395 36.636C195.2 35.868 194.251 34.7907 193.547 33.404C192.864 31.996 192.523 30.3747 192.523 28.54ZM205.899 28.572C205.899 27.2067 205.515 26.1293 204.747 25.34C204 24.5507 203.083 24.156 201.995 24.156C200.907 24.156 199.979 24.5507 199.211 25.34C198.464 26.108 198.091 27.1747 198.091 28.54C198.091 29.9053 198.464 30.9933 199.211 31.804C199.979 32.5933 200.907 32.988 201.995 32.988C203.083 32.988 204 32.5933 204.747 31.804C205.515 31.0147 205.899 29.9373 205.899 28.572ZM232.162 28.284C232.162 28.796 232.13 29.3293 232.066 29.884H219.682C219.767 30.9933 220.119 31.8467 220.738 32.444C221.378 33.02 222.156 33.308 223.074 33.308C224.439 33.308 225.388 32.732 225.922 31.58H231.746C231.447 32.7533 230.903 33.8093 230.114 34.748C229.346 35.6867 228.375 36.4227 227.202 36.956C226.028 37.4893 224.716 37.756 223.266 37.756C221.516 37.756 219.959 37.3827 218.594 36.636C217.228 35.8893 216.162 34.8227 215.394 33.436C214.626 32.0493 214.242 30.428 214.242 28.572C214.242 26.716 214.615 25.0947 215.362 23.708C216.13 22.3213 217.196 21.2547 218.562 20.508C219.927 19.7613 221.495 19.388 223.266 19.388C224.994 19.388 226.53 19.7507 227.874 20.476C229.218 21.2013 230.263 22.236 231.01 23.58C231.778 24.924 232.162 26.492 232.162 28.284ZM226.562 26.844C226.562 25.9053 226.242 25.1587 225.602 24.604C224.962 24.0493 224.162 23.772 223.202 23.772C222.284 23.772 221.506 24.0387 220.866 24.572C220.247 25.1053 219.863 25.8627 219.714 26.844H226.562ZM240.52 22.62C241.16 21.6387 241.96 20.8707 242.92 20.316C243.88 19.74 244.947 19.452 246.12 19.452V25.244H244.616C243.251 25.244 242.227 25.5427 241.544 26.14C240.862 26.716 240.52 27.74 240.52 29.212V37.5H235.048V19.644H240.52V22.62Z" fill="#000E18"/>
</svg>
