<svg width="148" height="52" viewBox="0 0 148 52" fill="none" xmlns="http://www.w3.org/2000/svg">
<path d="M10.7596 29.9817V38.1025C10.7596 38.4138 10.636 38.7124 10.4158 38.9324C10.1958 39.1526 9.89725 39.2762 9.5859 39.2762C9.27466 39.2762 8.97612 39.1526 8.75597 38.9324C8.53582 38.7124 8.41216 38.4138 8.41216 38.1025V29.993C8.73901 30.2317 9.13078 30.3649 9.53536 30.3749C9.97633 30.3874 10.4084 30.2487 10.7596 29.9817ZM20.7561 27.6343C20.4583 27.6343 20.1725 27.7526 19.9619 27.9632C19.7513 28.1738 19.6329 28.4596 19.6329 28.7575V30.1727C19.6329 30.484 19.7566 30.7826 19.9767 31.0026C20.1968 31.2228 20.4953 31.3464 20.8067 31.3464C21.118 31.3464 21.4166 31.2228 21.6366 31.0026C21.8568 30.7826 21.9804 30.484 21.9804 30.1727V28.8136C21.9892 28.6526 21.9631 28.4915 21.904 28.3414C21.845 28.1914 21.7543 28.0557 21.6381 27.9438C21.5219 27.8319 21.383 27.7464 21.2309 27.6929C21.0787 27.6395 20.9168 27.6195 20.7561 27.6343ZM5.86249 33.0593C5.45833 33.0472 5.06707 32.9142 4.73929 32.6774V40.8206C4.73929 41.1335 4.86354 41.4335 5.08472 41.6546C5.30589 41.8758 5.60586 42 5.91865 42C6.23144 42 6.53141 41.8758 6.75258 41.6546C6.97376 41.4335 7.09801 41.1335 7.09801 40.8206V32.7336C6.73123 32.9707 6.29847 33.0848 5.86249 33.0593ZM17.0945 25.1969C16.9423 25.1893 16.7902 25.2127 16.6474 25.2658C16.5046 25.3188 16.3741 25.4003 16.2637 25.5053C16.1534 25.6105 16.0657 25.7368 16.0057 25.8769C15.9458 26.017 15.9149 26.1678 15.9151 26.3201V32.5763C15.9151 32.8892 16.0394 33.1892 16.2605 33.4103C16.4818 33.6315 16.7817 33.7557 17.0945 33.7557C17.4073 33.7557 17.7073 33.6315 17.9285 33.4103C18.1496 33.1892 18.2739 32.8892 18.2739 32.5763V26.3987C18.2828 26.2367 18.2566 26.0746 18.1968 25.9236C18.1371 25.7727 18.0454 25.6364 17.9279 25.5243C17.8104 25.4122 17.6701 25.3269 17.5166 25.2743C17.3631 25.2216 17.1999 25.2029 17.0383 25.2194L17.0945 25.1969ZM13.3655 27.6006C12.9424 27.5976 12.5306 27.4643 12.1861 27.2187V35.3843C12.1861 35.6972 12.3103 35.9972 12.5315 36.2183C12.7528 36.4395 13.0527 36.5637 13.3655 36.5637C13.6783 36.5637 13.9782 36.4395 14.1995 36.2183C14.4206 35.9972 14.5448 35.6972 14.5448 35.3843V27.2299C14.1886 27.4953 13.7535 27.6337 13.3093 27.623L13.3655 27.6006ZM3.31282 33.8568V11.0446C3.30987 10.7665 3.19733 10.5008 2.99964 10.3053C2.80196 10.1097 2.5351 9.99999 2.25701 10H2.00991C1.73183 9.99999 1.46497 10.1097 1.26728 10.3053C1.0696 10.5008 0.957056 10.7665 0.954102 11.0446V33.8568C0.954102 34.1368 1.06534 34.4054 1.26334 34.6034C1.46134 34.8014 1.7299 34.9126 2.00991 34.9126H2.25701C2.53704 34.9126 2.80559 34.8014 3.00358 34.6034C3.20159 34.4054 3.31282 34.1368 3.31282 33.8568ZM5.98604 32.1945H5.73894C5.45892 32.1945 5.19037 32.0833 4.99237 31.8852C4.79437 31.6872 4.68313 31.4187 4.68313 31.1386V13.7627C4.68609 13.4847 4.79863 13.219 4.99631 13.0234C5.194 12.8278 5.46086 12.7181 5.73894 12.7181H5.98604C6.26412 12.7181 6.53099 12.8278 6.72867 13.0234C6.92635 13.219 7.0389 13.4847 7.04185 13.7627V31.1611C7.04185 31.4411 6.93061 31.7097 6.73261 31.9077C6.53461 32.1057 6.26606 32.2169 5.98604 32.2169V32.1945ZM9.70384 29.5212H9.4455C9.16852 29.5212 8.90277 29.4112 8.70689 29.2153C8.511 29.0194 8.40093 28.7538 8.40093 28.4767V16.4584C8.39947 16.3203 8.42541 16.1832 8.47719 16.0552C8.52897 15.9272 8.60568 15.8107 8.70284 15.7125C8.8 15.6143 8.91569 15.5364 9.04317 15.4832C9.17066 15.43 9.30735 15.4026 9.4455 15.4026H9.70384C9.98194 15.4056 10.2476 15.5181 10.4431 15.7158C10.6388 15.9135 10.7484 16.1803 10.7484 16.4584V28.4767C10.7484 28.7538 10.6383 29.0194 10.4425 29.2153C10.2466 29.4112 9.98093 29.5212 9.70384 29.5212ZM13.4216 26.7694H13.1858C12.9077 26.7694 12.6408 26.6598 12.4431 26.4641C12.2454 26.2686 12.1329 26.0029 12.13 25.7248V19.2552C12.1207 19.111 12.1412 18.9664 12.1902 18.8304C12.239 18.6945 12.3154 18.5699 12.4143 18.4647C12.5133 18.3593 12.6328 18.2755 12.7656 18.2182C12.8982 18.1611 13.0412 18.1316 13.1858 18.132H13.4329C13.7129 18.132 13.9814 18.2432 14.1795 18.4412C14.3775 18.6392 14.4887 18.9078 14.4887 19.1878V25.7024C14.4901 25.842 14.464 25.9805 14.4115 26.1098C14.3592 26.2392 14.2817 26.357 14.1834 26.4562C14.0852 26.5554 13.9684 26.6342 13.8395 26.688C13.7106 26.7418 13.5725 26.7694 13.4329 26.7694H13.4216ZM17.1507 24.3545H16.9036C16.6235 24.3545 16.355 24.2433 16.157 24.0453C15.9589 23.8473 15.8477 23.5787 15.8477 23.2987V21.6251C15.8507 21.347 15.9632 21.0814 16.1609 20.8858C16.3586 20.6902 16.6255 20.5806 16.9036 20.5806H17.1507C17.4288 20.5806 17.6956 20.6902 17.8933 20.8858C18.091 21.0814 18.2036 21.347 18.2065 21.6251V23.2987C18.2065 23.5768 18.0968 23.8437 17.9012 24.0414C17.7056 24.239 17.44 24.3516 17.1619 24.3545H17.1507Z" fill="#000E18"/>
<path d="M62.8784 15.036L57.0224 37.5H50.3984L46.8144 22.716L43.1024 37.5H36.4784L30.7824 15.036H36.6384L39.8704 31.388L43.8704 15.036H49.8864L53.7264 31.388L56.9904 15.036H62.8784ZM79.6067 33.532H71.2227L69.8787 37.5H64.1507L72.2787 15.036H78.6147L86.7427 37.5H80.9507L79.6067 33.532ZM78.1987 29.308L75.4147 21.084L72.6627 29.308H78.1987ZM110.304 15.036L102.336 37.5H95.4884L87.5204 15.036H93.3444L98.9124 31.996L104.512 15.036H110.304ZM118.063 19.42V23.964H125.391V28.188H118.063V33.116H126.351V37.5H112.591V15.036H126.351V19.42H118.063ZM138.032 37.724C136.389 37.724 134.917 37.4573 133.616 36.924C132.315 36.3907 131.269 35.6013 130.48 34.556C129.712 33.5107 129.307 32.252 129.264 30.78H135.088C135.173 31.612 135.461 32.252 135.952 32.7C136.443 33.1267 137.083 33.34 137.872 33.34C138.683 33.34 139.323 33.1587 139.792 32.796C140.261 32.412 140.496 31.8893 140.496 31.228C140.496 30.6733 140.304 30.2147 139.92 29.852C139.557 29.4893 139.099 29.1907 138.544 28.956C138.011 28.7213 137.243 28.4547 136.24 28.156C134.789 27.708 133.605 27.26 132.688 26.812C131.771 26.364 130.981 25.7027 130.32 24.828C129.659 23.9533 129.328 22.812 129.328 21.404C129.328 19.3133 130.085 17.6813 131.6 16.508C133.115 15.3133 135.088 14.716 137.52 14.716C139.995 14.716 141.989 15.3133 143.504 16.508C145.019 17.6813 145.829 19.324 145.936 21.436H140.016C139.973 20.7107 139.707 20.1453 139.216 19.74C138.725 19.3133 138.096 19.1 137.328 19.1C136.667 19.1 136.133 19.2813 135.728 19.644C135.323 19.9853 135.12 20.4867 135.12 21.148C135.12 21.8733 135.461 22.4387 136.144 22.844C136.827 23.2493 137.893 23.6867 139.344 24.156C140.795 24.6467 141.968 25.116 142.864 25.564C143.781 26.012 144.571 26.6627 145.232 27.516C145.893 28.3693 146.224 29.468 146.224 30.812C146.224 32.092 145.893 33.2547 145.232 34.3C144.592 35.3453 143.653 36.1773 142.416 36.796C141.179 37.4147 139.717 37.724 138.032 37.724Z" fill="#000E18"/>
</svg>
