<svg width="182" height="52" viewBox="0 0 182 52" fill="none" xmlns="http://www.w3.org/2000/svg">
<path fill-rule="evenodd" clip-rule="evenodd" d="M16.1582 42C24.9948 42 32.1582 34.8366 32.1582 26C32.1582 17.1635 24.9948 10 16.1582 10C7.32164 10 0.158203 17.1635 0.158203 26C0.158203 34.8366 7.32164 42 16.1582 42ZM21.1497 17.4535C21.3926 16.5904 20.5551 16.0801 19.7902 16.625L9.1127 24.2317C8.28318 24.8226 8.41366 26 9.3087 26H12.1204V25.9782H17.6002L13.1352 27.5537L11.1668 34.5466C10.9238 35.4096 11.7613 35.9199 12.5262 35.375L23.2038 27.7684C24.0333 27.1774 23.9027 26 23.0078 26H18.7439L21.1497 17.4535Z" fill="#000E18"/>
<path d="M47.9662 33.02H57.6302V37.5H41.7582V33.34L51.3582 19.516H41.7582V15.036H57.6302V19.196L47.9662 33.02ZM69.3327 37.756C67.5834 37.756 66.0047 37.3827 64.5967 36.636C63.21 35.8893 62.1114 34.8227 61.3007 33.436C60.5114 32.0493 60.1167 30.428 60.1167 28.572C60.1167 26.7373 60.522 25.1267 61.3327 23.74C62.1434 22.332 63.2527 21.2547 64.6607 20.508C66.0687 19.7613 67.6474 19.388 69.3967 19.388C71.146 19.388 72.7247 19.7613 74.1327 20.508C75.5407 21.2547 76.65 22.332 77.4607 23.74C78.2714 25.1267 78.6767 26.7373 78.6767 28.572C78.6767 30.4067 78.2607 32.028 77.4287 33.436C76.618 34.8227 75.498 35.8893 74.0687 36.636C72.6607 37.3827 71.082 37.756 69.3327 37.756ZM69.3327 33.02C70.378 33.02 71.2634 32.636 71.9887 31.868C72.7354 31.1 73.1087 30.0013 73.1087 28.572C73.1087 27.1427 72.746 26.044 72.0207 25.276C71.3167 24.508 70.442 24.124 69.3967 24.124C68.33 24.124 67.4447 24.508 66.7407 25.276C66.0367 26.0227 65.6847 27.1213 65.6847 28.572C65.6847 30.0013 66.026 31.1 66.7087 31.868C67.4127 32.636 68.2874 33.02 69.3327 33.02ZM89.7077 37.756C87.9584 37.756 86.3797 37.3827 84.9717 36.636C83.585 35.8893 82.4864 34.8227 81.6757 33.436C80.8864 32.0493 80.4917 30.428 80.4917 28.572C80.4917 26.7373 80.897 25.1267 81.7077 23.74C82.5184 22.332 83.6277 21.2547 85.0357 20.508C86.4437 19.7613 88.0224 19.388 89.7717 19.388C91.521 19.388 93.0997 19.7613 94.5077 20.508C95.9157 21.2547 97.025 22.332 97.8357 23.74C98.6464 25.1267 99.0517 26.7373 99.0517 28.572C99.0517 30.4067 98.6357 32.028 97.8037 33.436C96.993 34.8227 95.873 35.8893 94.4437 36.636C93.0357 37.3827 91.457 37.756 89.7077 37.756ZM89.7077 33.02C90.753 33.02 91.6384 32.636 92.3637 31.868C93.1104 31.1 93.4837 30.0013 93.4837 28.572C93.4837 27.1427 93.121 26.044 92.3957 25.276C91.6917 24.508 90.817 24.124 89.7717 24.124C88.705 24.124 87.8197 24.508 87.1157 25.276C86.4117 26.0227 86.0597 27.1213 86.0597 28.572C86.0597 30.0013 86.401 31.1 87.0837 31.868C87.7877 32.636 88.6624 33.02 89.7077 33.02ZM124.739 19.452C126.957 19.452 128.717 20.124 130.019 21.468C131.341 22.812 132.003 24.6787 132.003 27.068V37.5H126.563V27.804C126.563 26.652 126.253 25.7667 125.635 25.148C125.037 24.508 124.205 24.188 123.139 24.188C122.072 24.188 121.229 24.508 120.611 25.148C120.013 25.7667 119.715 26.652 119.715 27.804V37.5H114.275V27.804C114.275 26.652 113.965 25.7667 113.347 25.148C112.749 24.508 111.917 24.188 110.851 24.188C109.784 24.188 108.941 24.508 108.323 25.148C107.725 25.7667 107.427 26.652 107.427 27.804V37.5H101.955V19.644H107.427V21.884C107.981 21.1373 108.707 20.5507 109.603 20.124C110.499 19.676 111.512 19.452 112.643 19.452C113.987 19.452 115.181 19.74 116.227 20.316C117.293 20.892 118.125 21.7133 118.723 22.78C119.341 21.7987 120.184 20.9987 121.251 20.38C122.317 19.7613 123.48 19.452 124.739 19.452ZM152.662 28.284C152.662 28.796 152.63 29.3293 152.566 29.884H140.182C140.267 30.9933 140.619 31.8467 141.238 32.444C141.878 33.02 142.656 33.308 143.574 33.308C144.939 33.308 145.888 32.732 146.422 31.58H152.246C151.947 32.7533 151.403 33.8093 150.614 34.748C149.846 35.6867 148.875 36.4227 147.702 36.956C146.528 37.4893 145.216 37.756 143.766 37.756C142.016 37.756 140.459 37.3827 139.094 36.636C137.728 35.8893 136.662 34.8227 135.894 33.436C135.126 32.0493 134.742 30.428 134.742 28.572C134.742 26.716 135.115 25.0947 135.862 23.708C136.63 22.3213 137.696 21.2547 139.062 20.508C140.427 19.7613 141.995 19.388 143.766 19.388C145.494 19.388 147.03 19.7507 148.374 20.476C149.718 21.2013 150.763 22.236 151.51 23.58C152.278 24.924 152.662 26.492 152.662 28.284ZM147.062 26.844C147.062 25.9053 146.742 25.1587 146.102 24.604C145.462 24.0493 144.662 23.772 143.702 23.772C142.784 23.772 142.006 24.0387 141.366 24.572C140.747 25.1053 140.363 25.8627 140.214 26.844H147.062ZM161.02 22.62C161.66 21.6387 162.46 20.8707 163.42 20.316C164.38 19.74 165.447 19.452 166.62 19.452V25.244H165.116C163.751 25.244 162.727 25.5427 162.044 26.14C161.362 26.716 161.02 27.74 161.02 29.212V37.5H155.548V19.644H161.02V22.62ZM174.708 22.62C175.348 21.6387 176.148 20.8707 177.108 20.316C178.068 19.74 179.135 19.452 180.308 19.452V25.244H178.804C177.439 25.244 176.415 25.5427 175.732 26.14C175.049 26.716 174.708 27.74 174.708 29.212V37.5H169.236V19.644H174.708V22.62Z" fill="#000E18"/>
</svg>
