<svg width="24" height="24" viewBox="0 0 24 24" fill="none" xmlns="http://www.w3.org/2000/svg">
<path d="M10.4504 7.46934C10.2604 7.46934 10.0704 7.39934 9.9204 7.24934L6.7304 4.05934L3.5404 7.24934C3.2504 7.53934 2.7704 7.53934 2.4804 7.24934C2.34092 7.1082 2.2627 6.91777 2.2627 6.71934C2.2627 6.52091 2.34092 6.33048 2.4804 6.18934L6.2004 2.46934C6.34102 2.32889 6.53165 2.25 6.7304 2.25C6.92915 2.25 7.11977 2.32889 7.2604 2.46934L10.9804 6.18934C11.2704 6.47934 11.2704 6.95934 10.9804 7.24934C10.8304 7.39934 10.6404 7.46934 10.4504 7.46934Z" fill="#999999"/>
<path d="M6.73047 21.75C6.32047 21.75 5.98047 21.41 5.98047 21V3C5.98047 2.59 6.32047 2.25 6.73047 2.25C7.14047 2.25 7.48047 2.59 7.48047 3V21C7.48047 21.41 7.14047 21.75 6.73047 21.75ZM17.2805 21.75C17.0816 21.7498 16.891 21.6707 16.7505 21.53L13.0305 17.81C12.891 17.6689 12.8128 17.4784 12.8128 17.28C12.8128 17.0816 12.891 16.8911 13.0305 16.75C13.3205 16.46 13.8005 16.46 14.0905 16.75L17.2805 19.94L20.4705 16.75C20.7605 16.46 21.2405 16.46 21.5305 16.75C21.8205 17.04 21.8205 17.52 21.5305 17.81L17.8105 21.53C17.6705 21.67 17.4705 21.75 17.2805 21.75Z" fill="#999999"/>
<path d="M17.2695 21.75C16.8595 21.75 16.5195 21.41 16.5195 21V3C16.5195 2.59 16.8595 2.25 17.2695 2.25C17.6795 2.25 18.0195 2.59 18.0195 3V21C18.0195 21.41 17.6895 21.75 17.2695 21.75Z" fill="#999999"/>
</svg>
