<svg width="63" height="64" viewBox="0 0 63 64" fill="none" xmlns="http://www.w3.org/2000/svg">
<circle cx="31.5" cy="32" r="31" fill="#000E18" stroke="#009260"/>
<path d="M23.9741 22.6408C23.8394 22.6449 23.7071 22.6743 23.5848 22.7272C23.4625 22.78 23.3528 22.8554 23.2622 22.9487C23.1715 23.042 23.1018 23.1514 23.0571 23.2704C23.0124 23.3894 22.9936 23.5156 23.0019 23.6416C23.1364 25.8015 23.7704 31.0716 26.8059 34.3583C30.4409 38.3181 35.1748 39.6824 40.0317 39.4808C40.292 39.4662 40.5368 39.3596 40.7165 39.1826C40.8962 39.0055 40.9975 38.7712 41 38.5268V35.0674C40.997 34.7446 40.8783 34.4322 40.663 34.1802C40.4476 33.9282 40.1482 33.7513 39.8127 33.6779L37.3804 33.1739C37.0796 33.1138 36.7664 33.1397 36.4815 33.2481C36.1965 33.3566 35.9528 33.5427 35.7819 33.7823L35.244 34.5454C35.1946 34.6153 35.1208 34.6668 35.0352 34.6911C34.9496 34.7154 34.8577 34.711 34.7752 34.6786C33.5379 34.1783 28.6081 32.0184 28.0663 28.3753C28.0557 28.305 28.0675 28.2333 28.1003 28.1692C28.1332 28.1051 28.1855 28.0516 28.2507 28.0154L29.2267 27.4574C29.4944 27.302 29.7047 27.0732 29.8291 26.8022C29.9535 26.5311 29.986 26.2308 29.9222 25.9419L29.3881 23.6236C29.31 23.2988 29.1142 23.0093 28.8339 22.8045C28.5537 22.5998 28.2064 22.4923 27.8511 22.5004L23.9741 22.6408Z" stroke="white"/>
</svg>
