<svg width="24" height="25" viewBox="0 0 24 25" fill="none" xmlns="http://www.w3.org/2000/svg">
<g clip-path="url(#clip0_12871_16107)">
<path d="M12 0.294922C8.74 0.294922 8.333 0.309922 7.053 0.366922C5.775 0.426922 4.905 0.627922 4.14 0.924922C3.351 1.23092 2.681 1.64192 2.014 2.30892C1.347 2.97592 0.935 3.64492 0.63 4.43492C0.333 5.19992 0.131 6.06992 0.072 7.34792C0.012 8.62792 0 9.03492 0 12.2949C0 15.5549 0.015 15.9619 0.072 17.2419C0.132 18.5189 0.333 19.3899 0.63 20.1549C0.936 20.9429 1.347 21.6139 2.014 22.2809C2.681 22.9469 3.35 23.3599 4.14 23.6649C4.906 23.9609 5.776 24.1639 7.053 24.2229C8.333 24.2829 8.74 24.2949 12 24.2949C15.26 24.2949 15.667 24.2799 16.947 24.2229C18.224 24.1629 19.095 23.9609 19.86 23.6649C20.648 23.3589 21.319 22.9469 21.986 22.2809C22.652 21.6139 23.065 20.9459 23.37 20.1549C23.666 19.3899 23.869 18.5189 23.928 17.2419C23.988 15.9619 24 15.5549 24 12.2949C24 9.03492 23.985 8.62792 23.928 7.34792C23.868 6.07092 23.666 5.19892 23.37 4.43492C23.064 3.64592 22.652 2.97592 21.986 2.30892C21.319 1.64192 20.651 1.22992 19.86 0.924922C19.095 0.627922 18.224 0.425922 16.947 0.366922C15.667 0.306922 15.26 0.294922 12 0.294922ZM12 2.45492C15.203 2.45492 15.585 2.47092 16.85 2.52592C18.02 2.58092 18.655 2.77492 19.077 2.94092C19.639 3.15792 20.037 3.41792 20.459 3.83692C20.878 4.25692 21.138 4.65592 21.355 5.21792C21.519 5.63992 21.715 6.27492 21.768 7.44492C21.825 8.71092 21.838 9.09092 21.838 12.2949C21.838 15.4989 21.823 15.8799 21.764 17.1449C21.703 18.3149 21.508 18.9499 21.343 19.3719C21.119 19.9339 20.864 20.3319 20.444 20.7539C20.025 21.1729 19.62 21.4329 19.064 21.6499C18.644 21.8139 17.999 22.0099 16.829 22.0629C15.555 22.1199 15.18 22.1329 11.97 22.1329C8.759 22.1329 8.384 22.1179 7.111 22.0589C5.94 21.9979 5.295 21.8029 4.875 21.6379C4.306 21.4139 3.915 21.1589 3.496 20.7389C3.075 20.3199 2.806 19.9149 2.596 19.3589C2.431 18.9389 2.237 18.2939 2.176 17.1239C2.131 15.8639 2.115 15.4749 2.115 12.2799C2.115 9.08392 2.131 8.69392 2.176 7.41892C2.237 6.24892 2.431 5.60492 2.596 5.18492C2.806 4.61492 3.075 4.22492 3.496 3.80392C3.915 3.38492 4.306 3.11492 4.875 2.90592C5.295 2.73992 5.926 2.54492 7.096 2.48492C8.371 2.43992 8.746 2.42492 11.955 2.42492L12 2.45492ZM12 6.13292C8.595 6.13292 5.838 8.89292 5.838 12.2949C5.838 15.6999 8.598 18.4569 12 18.4569C15.405 18.4569 18.162 15.6969 18.162 12.2949C18.162 8.88992 15.402 6.13292 12 6.13292ZM12 16.2949C9.79 16.2949 8 14.5049 8 12.2949C8 10.0849 9.79 8.29492 12 8.29492C14.21 8.29492 16 10.0849 16 12.2949C16 14.5049 14.21 16.2949 12 16.2949ZM19.846 5.88992C19.846 6.68492 19.2 7.32992 18.406 7.32992C17.611 7.32992 16.966 6.68392 16.966 5.88992C16.966 5.09592 17.612 4.45092 18.406 4.45092C19.199 4.44992 19.846 5.09592 19.846 5.88992Z" fill="black"/>
</g>
<defs>
<clipPath id="clip0_12871_16107">
<rect width="24" height="24" fill="white" transform="translate(0 0.294922)"/>
</clipPath>
</defs>
</svg>
