<svg width="24" height="25" viewBox="0 0 24 25" fill="none" xmlns="http://www.w3.org/2000/svg">
<g clip-path="url(#clip0_12871_16101)">
<path d="M20.447 20.7469H16.893V15.1779C16.893 13.8499 16.866 12.1409 15.041 12.1409C13.188 12.1409 12.905 13.5859 12.905 15.0799V20.7469H9.351V9.29492H12.765V10.8559H12.811C13.288 9.95592 14.448 9.00592 16.181 9.00592C19.782 9.00592 20.448 11.3759 20.448 14.4609V20.7469H20.447ZM5.337 7.72792C4.193 7.72792 3.274 6.80192 3.274 5.66292C3.274 4.52492 4.194 3.59992 5.337 3.59992C6.477 3.59992 7.401 4.52492 7.401 5.66292C7.401 6.80192 6.476 7.72792 5.337 7.72792ZM7.119 20.7469H3.555V9.29492H7.119V20.7469ZM22.225 0.294922H1.771C0.792 0.294922 0 1.06892 0 2.02392V22.5659C0 23.5219 0.792 24.2949 1.771 24.2949H22.222C23.2 24.2949 24 23.5219 24 22.5659V2.02392C24 1.06892 23.2 0.294922 22.222 0.294922H22.225Z" fill="#23262F"/>
</g>
<defs>
<clipPath id="clip0_12871_16101">
<rect width="24" height="24" fill="white" transform="translate(0 0.294922)"/>
</clipPath>
</defs>
</svg>
