<svg width="29" height="28" viewBox="0 0 29 28" fill="none" xmlns="http://www.w3.org/2000/svg">
<path d="M0.330413 6.8978C0.34027 6.95312 0.34825 7.00843 0.351535 7.06421C0.39331 7.78008 0.9345 13.4919 7.73857 20.4464C7.73857 20.4464 13.6161 26.4361 19.802 27.6955C19.8288 27.701 19.855 27.707 19.8818 27.7144C20.2564 27.8162 23.4406 28.6211 25.082 26.975L27.4204 24.6785C27.4416 24.6577 27.4636 24.6375 27.4862 24.6181C27.7194 24.4176 29.3435 22.9172 27.719 21.3218C26.0747 19.707 24.002 17.7382 23.7673 17.5151C23.756 17.5045 23.7452 17.4939 23.7344 17.4829C23.6072 17.3529 22.3991 16.1839 20.9839 17.2519C20.9431 17.2828 20.9046 17.3174 20.868 17.3533L18.5783 19.6079C18.0653 20.0942 17.2505 20.0878 16.745 19.5936L8.92281 11.9412C8.39758 11.4272 8.41119 10.5878 8.95285 10.0904L10.7834 8.41068C10.7834 8.41068 12.7891 6.58711 10.6351 4.61742L7.4377 1.47735C7.41799 1.45799 7.39921 1.43817 7.38044 1.41743C7.17391 1.18879 5.6414 -0.376636 3.84322 1.3658C3.78831 1.41881 3.72869 1.46675 3.66533 1.50916C3.05514 1.92034 -0.151636 4.21777 0.330413 6.8978Z" fill="#001726"/>
</svg>
